<?xml version="1.0" encoding="iso-8859-1"?>
<!-- Generator: Adobe Illustrator 19.0.0, SVG Export Plug-In . SVG Version: 6.00 Build 0)  -->
<svg version="1.1" id="Capa_1" xmlns="http://www.w3.org/2000/svg" xmlns:xlink="http://www.w3.org/1999/xlink" x="0px" y="0px"
	 viewBox="0 0 512 512" style="enable-background:new 0 0 512 512;" xml:space="preserve">
<path style="fill:#FFEB8C;" d="M256,512c-68.38,0-132.668-26.629-181.019-74.981C26.628,388.666,0,324.38,0,255.999
	S26.628,123.333,74.98,74.981C123.332,26.629,187.62,0,256,0c68.38,0,132.668,26.629,181.019,74.981
	c48.352,48.351,74.98,112.639,74.98,181.018s-26.628,132.667-74.98,181.018l0,0l0,0C388.668,485.371,324.38,512,256,512z"/>
<path style="fill:#FD6244;" d="M320.501,336.098c-4.083,0-8.067-1.605-11.029-4.569L180.471,202.528
	c-3.933-3.933-5.475-9.662-4.045-15.037c1.43-5.375,5.613-9.583,10.98-11.042l177.188-48.188c5.398-1.468,11.168,0.067,15.122,4.022
	c3.955,3.954,5.489,9.725,4.022,15.122l-48.188,177.188c-1.46,5.368-5.667,9.551-11.042,10.98
	C323.184,335.926,321.836,336.098,320.501,336.098z"/>
<path style="fill:#40B4E5;" d="M143.313,384.286c-4.082,0-8.066-1.604-11.029-4.569c-3.955-3.954-5.489-9.725-4.022-15.122
	l48.188-177.188c1.46-5.368,5.667-9.551,11.042-10.98l148.082,148.082c-1.43,5.375-5.613,9.583-10.98,11.042l-177.188,48.188
	C146.054,384.106,144.677,384.286,143.313,384.286z"/>
<path style="fill:#FFC82D;" d="M437.019,74.981c-0.315-0.315-0.638-0.619-0.955-0.932L74.049,436.065
	c0.313,0.316,0.617,0.639,0.931,0.953C123.332,485.371,187.619,512,256,512s132.668-26.629,181.019-74.981
	c48.352-48.351,74.98-112.639,74.981-181.018C512,187.62,485.371,123.333,437.019,74.981z"/>
<path style="fill:#FD3018;" d="M383.739,147.405c1.467-5.397-0.067-11.168-4.022-15.122c-0.317-0.317-0.649-0.612-0.988-0.897
	l-134.7,134.7l65.443,65.443c2.964,2.964,6.947,4.569,11.029,4.569c1.335,0,2.683-0.172,4.009-0.524
	c5.375-1.429,9.582-5.613,11.042-10.98L383.739,147.405z"/>
<path style="fill:#0073AA;" d="M260.589,249.526L131.386,378.729c0.285,0.339,0.58,0.671,0.897,0.988
	c2.965,2.965,6.948,4.569,11.029,4.569c1.363,0,2.741-0.18,4.093-0.547l177.188-48.188c5.367-1.459,9.551-5.667,10.98-11.042
	L260.589,249.526z"/>
<g>
</g>
<g>
</g>
<g>
</g>
<g>
</g>
<g>
</g>
<g>
</g>
<g>
</g>
<g>
</g>
<g>
</g>
<g>
</g>
<g>
</g>
<g>
</g>
<g>
</g>
<g>
</g>
<g>
</g>
</svg>
