<svg id="Capa_1" enable-background="new 0 0 512 512" height="512" viewBox="0 0 512 512" width="512" xmlns="http://www.w3.org/2000/svg"><g><g><g><g><g><g><g><g><g><g><g><g><g><path d="m331.896 445.567v-360.148c-14.454-3.231-25.256-16.135-25.256-31.563v-48.139c0-1.485-.83-2.871-2.178-3.494-3.141-1.451-6.587-2.223-10.113-2.223h-232.989c-17.582 0-31.836 14.254-31.836 31.837v410.095c0 17.583 14.254 31.837 31.837 31.837h254.038c9.846-5.545 16.497-16.097 16.497-28.202z" fill="#f6f9f9"/><path d="m336.176 88.182c-2.397 0-4.729-.274-6.975-.776v354.526c0 17.583-14.254 31.837-31.837 31.837h63.321c17.583 0 31.837-14.254 31.837-31.837v-343.76c0-3.481-.758-6.882-2.173-9.99z" fill="#e7ecf1"/><path d="m385.457 81.118-74.053-74.054c-2.062-2.062-4.461-3.706-7.064-4.891v54.172c0 17.583 14.254 31.837 31.836 31.837h54.173c-1.186-2.604-2.83-5.002-4.892-7.064z" fill="#fc8086"/></g></g></g></g></g></g></g></g></g></g><g><g><g><g><g><path d="m299.931 329.927s2.81-4.743 5.817-9.82l-23.006-13.61c-15.176-8.709-22.273-10.32-35.965-5.027l-14.922 5.769c-9.081 3.511-19.27 2.663-27.646-2.299l-39.94-23.549-56.727 95.752 51.142 30.186c3.464 2.052 6.507 4.745 8.965 7.933l17.233 22.35c9.519 11.133 29.164 25.574 41.766 33.04l17.901 10.605c3.722-1.749 6.984-4.575 9.239-8.38 2.801-4.728 3.55-10.095 2.529-15.086-.333-1.626.337-3.293 1.692-4.251s3.146-1.03 4.574-.184l7.192 4.261c10.06 5.96 23.29 3.111 29.431-6.84 4.767-7.725 3.977-17.241-1.164-24.025-.248-.328-.237-.781.041-1.084.272-.297.715-.361 1.06-.155l8.758 5.227c10.111 5.99 23.163 2.65 29.152-7.461 4.403-7.432 3.754-16.447-.91-23.083-.271-.386-.246-.904.077-1.247.317-.335.824-.407 1.22-.172l11.147 6.604c8.621 5.107 19.779 3.933 26.73-3.284 2.561-2.66 4.612-6.7 5.56-9.963l-76.648-45.39c-5.828-3.457-7.753-10.985-4.298-16.817z" fill="#ffece3"/></g><path d="m417.945 414.083-39.188-23.207c-.862 3.352-2.526 6.599-5.24 9.417-6.361 6.605-16.248 8.148-24.487 4.447l-15.516-9.192c-3.674-2.177-8.414-.962-10.589 2.709-2.176 3.673-.963 8.414 2.709 10.589l11.927 7.066c-.489 1.909-1.253 3.781-2.309 5.563-5.501 9.285-16.958 12.86-26.623 8.742l-12.661-7.501c-3.674-2.176-8.413-.963-10.589 2.709-2.176 3.673-.963 8.414 2.709 10.589l11.839 7.014c-.518 2.045-1.353 4.049-2.523 5.945-6.141 9.951-19.371 12.8-29.431 6.84l-7.192-4.261c-1.428-.846-3.219-.774-4.574.184s-2.025 2.625-1.692 4.251c1.021 4.99.272 10.358-2.529 15.086-2.396 4.044-5.93 6.983-9.945 8.697l49.972 29.605c8.812 5.22 20.567 2.442 25.621-6.465 4.901-8.638 1.999-19.647-6.582-24.732l20.138 11.93c8.812 5.22 20.567 2.443 25.621-6.465 4.901-8.638 1.999-19.647-6.582-24.731l13.287 7.872c8.811 5.22 20.566 2.443 25.621-6.465 4.902-8.638 2-19.648-6.582-24.732l16.354 9.689c8.811 5.22 20.565 2.443 25.619-6.464 4.9-8.638 1.998-19.646-6.583-24.729z" fill="#ffddce"/></g><path d="m434.328 331.388-26.232-44.278-30.675 17.83c-8.376 4.962-18.566 5.81-27.646 2.299l-16.829-6.611c-5.263-2.068-11.043-2.434-16.525-1.046l-25.784 6.525c-12.003 3.038-20.411 13.838-20.411 26.22v34.419c0 4.867 3.944 8.825 8.81 8.828 14.675.01 26.575-11.884 26.575-26.557v-1.457l50.293 29.783z" fill="#fcd0a3"/><g><path d="m432.557 328.398-80.072 46.92 63.492 37.599c2.044-2.178 4.389-4.061 6.967-5.589l41.878-24.467z" fill="#ffb983"/></g><g><g fill="#fcd0a3"><path d="m181.099 427.607-10.347 14.413c-5.883 8.195-17.296 10.069-25.491 4.186-8.195-5.883-10.069-17.296-4.186-25.491l10.347-14.413c5.883-8.195 17.296-10.069 25.491-4.186 8.195 5.883 10.069 17.296 4.186 25.491z"/><path d="m222.195 433.006-21.766 30.319c-5.883 8.195-17.296 10.069-25.491 4.186-8.195-5.883-10.069-17.296-4.186-25.491l21.766-30.319c5.883-8.195 17.296-10.069 25.491-4.186 8.196 5.883 10.07 17.296 4.186 25.491z"/><path d="m251.873 454.312-21.766 30.319c-5.883 8.195-17.296 10.069-25.491 4.186-8.195-5.883-10.069-17.296-4.186-25.491l21.766-30.319c5.883-8.195 17.296-10.069 25.491-4.186 8.195 5.883 10.069 17.296 4.186 25.491z"/></g><path d="m271.878 489.089-7.238 10.082c-5.883 8.195-17.296 10.069-25.491 4.186-8.195-5.883-10.069-17.296-4.186-25.491l7.238-10.082c5.883-8.195 17.296-10.069 25.491-4.186 8.195 5.883 10.069 17.296 4.186 25.491z" fill="#ffb983"/></g></g></g><g fill="#7c8b96"><path d="m185.649 271.436-15.999-9.478c-4.401-2.607-10.083-1.153-12.69 3.248l-65.776 111.027c-2.607 4.401-1.153 10.083 3.248 12.69l15.999 9.478c10.731 6.358 24.585 2.812 30.942-7.919l52.196-88.104c6.357-10.731 2.812-24.584-7.92-30.942z"/><path d="m402.715 261.958-15.999 9.478c-10.731 6.358-14.277 20.211-7.919 30.942l52.196 88.104c6.358 10.731 20.211 14.277 30.942 7.919l15.999-9.478c4.401-2.607 5.855-8.289 3.248-12.69l-65.776-111.027c-2.608-4.401-8.29-5.855-12.691-3.248z"/></g></g></g><g><path d="m337.378 149.759h-252.711c-4.269 0-7.729-3.46-7.729-7.729s3.46-7.729 7.729-7.729h252.711c4.269 0 7.729 3.46 7.729 7.729s-3.46 7.729-7.729 7.729z" fill="#ddeafb"/></g><g><path d="m211.023 95.911h-126.356c-4.269 0-7.729-3.46-7.729-7.729s3.46-7.729 7.729-7.729h126.356c4.269 0 7.729 3.46 7.729 7.729s-3.46 7.729-7.729 7.729z" fill="#ddeafb"/></g><g><path d="m337.378 197.472h-252.711c-4.269 0-7.729-3.46-7.729-7.729s3.46-7.729 7.729-7.729h252.711c4.269 0 7.729 3.46 7.729 7.729s-3.46 7.729-7.729 7.729z" fill="#ddeafb"/></g></g></g></svg>