<svg width="42" height="42" viewBox="0 0 42 42" fill="none" xmlns="http://www.w3.org/2000/svg">
<path d="M21 41.9999C32.5979 41.9999 41.9999 32.5979 41.9999 21C41.9999 9.402 32.5979 0 21 0C9.402 0 0 9.402 0 21C0 32.5979 9.402 41.9999 21 41.9999Z" fill="#27536B"/>
<path d="M32.1052 24.0206C28.1379 27.9879 21.7056 27.9879 17.7383 24.0206C13.771 20.0534 13.771 13.621 17.7383 9.65371C18.5655 8.82649 19.5 8.17244 20.4968 7.69025C17.2321 7.77728 13.9933 9.06627 11.5016 11.5579C6.33799 16.7215 6.33799 25.0936 11.5016 30.2572C16.6653 35.4208 25.0373 35.4208 30.201 30.2572C32.6927 27.7655 33.9816 24.5269 34.0686 21.262C33.5865 22.2589 32.9324 23.1934 32.1052 24.0206Z" fill="#FCD57E"/>
<path d="M29.1877 12.5976L29.656 16.8346L30.1245 12.5976L34.3614 12.1293L30.1245 11.6608L29.656 7.42389L29.1877 11.6608L24.9507 12.1293L29.1877 12.5976Z" fill="white"/>
<path d="M9.21759 33.6849L9.55311 36.7199L9.88862 33.6849L12.9236 33.3494L9.88862 33.0139L9.55311 29.9789L9.21759 33.0139L6.18262 33.3494L9.21759 33.6849Z" fill="white"/>
<path d="M20.3745 20.1852L19.7734 20.7863L20.3745 21.3873L20.9755 20.7863L20.3745 20.1852Z" fill="white"/>
<path d="M34.791 15.6874L34.1899 16.2885L34.791 16.8895L35.392 16.2885L34.791 15.6874Z" fill="white"/>
<path d="M37.3413 23.1558L36.7402 23.7569L37.3413 24.358L37.9423 23.7569L37.3413 23.1558Z" fill="white"/>
<path d="M6.66502 10.0399L6.06396 10.641L6.66502 11.242L7.26607 10.641L6.66502 10.0399Z" fill="white"/>
<path d="M28.8344 34.3953L28.2334 34.9964L28.8344 35.5975L29.4355 34.9964L28.8344 34.3953Z" fill="white"/>
<path d="M10.0708 7.8536L9.46973 8.45465L10.0708 9.0557L10.6718 8.45465L10.0708 7.8536Z" fill="white"/>
</svg>
