<svg id="Capa_1" enable-background="new 0 0 512 512" height="512" viewBox="0 0 512 512" width="512" xmlns="http://www.w3.org/2000/svg"><g><path d="m383.008 45v422c0 24.81-20.19 45-45 45h-293c-24.81 0-45-20.19-45-45v-422c0-24.81 20.19-45 45-45h293c24.81 0 45 20.19 45 45z" fill="#eef4ff"/><path d="m383.008 45v422c0 24.81-20.19 45-45 45h-146v-512h146c24.81 0 45 20.19 45 45z" fill="#d9e6fc"/><path d="m319.008 112c0 8.28-6.72 15-15 15h-224c-8.28 0-15-6.72-15-15s6.72-15 15-15h224c8.28 0 15 6.72 15 15z" fill="#425796"/><path d="m319.008 112c0 8.28-6.72 15-15 15h-113v-30h113c8.28 0 15 6.72 15 15z" fill="#283758"/><path d="m271.008 192c0 8.28-6.72 15-15 15h-176c-8.28 0-15-6.72-15-15s6.72-15 15-15h176c8.28 0 15 6.72 15 15z" fill="#425796"/><path d="m271.008 192c0 8.28-6.72 15-15 15h-65v-30h65c8.28 0 15 6.72 15 15z" fill="#283758"/><path d="m223.008 272c0 8.28-6.72 15-15 15h-128c-8.28 0-15-6.72-15-15s6.72-15 15-15h128c8.28 0 15 6.72 15 15z" fill="#425796"/><path d="m223.008 272c0 8.28-6.72 15-15 15h-17v-30h17c8.28 0 15 6.72 15 15z" fill="#283758"/><path d="m507.848 223.29c-1.87 3.16-8.12 9.58-50 50.91-24.27 23.95-60.51 59.64-114.79 113.22-2.61 2.59 3.29-.57-89.05 42.52-12.75 5.97-25.81-7.36-19.94-19.94 43.16-92.47 39.92-86.47 42.59-89.11 54.1-54.1 90.04-90.06 113.93-113.95 46.43-46.45 47.34-47.33 47.45-47.21 12.03-9.72 29.32-8.76 40.14 2.06 27.1 27.1 25.79 25.69 27.1 27.32 7.68 9.36 9.09 23.05 2.57 34.18z" fill="#ffe278"/><path d="m507.848 223.29c-2.95 4.99-16.85 18.11-164.79 164.13-2.61 2.59 3.29-.57-89.05 42.52-2.03.95-4.2 1.41-6.34 1.41-4.15 0-7.77-1.63-10.41-4.2l253.15-253.14c14.46 14.45 13.79 13.76 14.87 15.1 7.68 9.36 9.09 23.05 2.57 34.18z" fill="#ffb454"/><path d="m507.848 223.29c-1.87 3.16-8.12 9.58-50 50.91l-.08-.07-33.74-33.74-33.44-33.43v-.02c46.43-46.45 47.34-47.33 47.45-47.21 12.03-9.72 29.32-8.76 40.14 2.06 4.97 4.97 8.98 8.98 12.23 12.22 14.48 14.47 13.8 13.77 14.87 15.1 7.68 9.36 9.09 23.05 2.57 34.18z" fill="#dd5958"/><path d="m507.848 223.29c-1.87 3.16-8.12 9.58-50 50.91l-.08-.07-33.74-33.74 66.38-66.38c14.48 14.47 13.8 13.77 14.87 15.1 7.68 9.36 9.09 23.05 2.57 34.18z" fill="#d8225b"/></g></svg>