<svg id="Capa_1" enable-background="new 0 0 512 512" height="512" viewBox="0 0 512 512" width="512" xmlns="http://www.w3.org/2000/svg"><g><g><g><circle cx="256" cy="256" fill="#ff9e22" r="256"/></g></g><path d="m87.279 277.633 227.562 227.562c94.547-22.24 168.881-96.886 190.654-191.612l-57.583-57.583z" fill="#e17726"/><path d="m447.912 256s-85.239 105.085-190.388 105.085-190.387-105.085-190.387-105.085 85.239-105.085 190.388-105.085 190.387 105.085 190.387 105.085z" fill="#eef4ff"/><path d="m447.912 256s-85.239 105.085-190.388 105.085v-210.17c105.149 0 190.388 105.085 190.388 105.085z" fill="#d6e9f8"/><g><g><circle cx="257.525" cy="255.992" fill="#804111" r="98.769"/><path d="m356.294 255.992c0 54.549-44.221 98.769-98.769 98.769v-197.538c54.549 0 98.769 44.221 98.769 98.769z" fill="#62320d"/><path d="m319.63 255.992c0 34.299-27.805 62.105-62.105 62.105-27.591 0-50.98-17.992-59.073-42.884l-.165-37.926c7.936-25.159 31.457-43.4 59.238-43.4 34.299.001 62.105 27.806 62.105 62.105z" fill="#464646"/><path d="m198.292 237.287c-1.863 5.904-2.872 12.186-2.872 18.705 0 6.71 1.077 13.165 3.046 19.219l37.837-18.918z" fill="#eef4ff"/><path d="m319.63 255.992c0-34.299-27.805-62.105-62.105-62.105v124.21c34.299 0 62.105-27.805 62.105-62.105z" fill="#2d2d2d"/></g></g></g></svg>