<?xml version="1.0" encoding="iso-8859-1"?>
<!-- Generator: Adobe Illustrator 19.0.0, SVG Export Plug-In . SVG Version: 6.00 Build 0)  -->
<svg version="1.1" id="Capa_1" xmlns="http://www.w3.org/2000/svg" xmlns:xlink="http://www.w3.org/1999/xlink" x="0px" y="0px"
	 viewBox="0 0 511.999 511.999" style="enable-background:new 0 0 511.999 511.999;" xml:space="preserve">
<path style="fill:#7C8287;" d="M252.781,344.571L103.005,494.347c-11.767,11.767-27.222,17.65-42.671,17.65
	c-15.462,0-30.918-5.883-42.685-17.65c-23.534-23.534-23.534-61.823,0-85.356l149.784-149.783l21.24,21.24l-0.007,0.007
	L252.781,344.571z"/>
<path style="fill:#596C76;" d="M210.103,301.892l42.678,42.677L103.005,494.347c-11.767,11.767-27.222,17.65-42.671,17.65
	c-15.462,0-30.918-5.883-42.685-17.65L210.103,301.892z"/>
<path style="fill:#DCE6EB;" d="M457.71,316.824c-36.185,36.185-83.727,54.289-131.263,54.289
	c-47.542-0.007-95.076-18.104-131.27-54.296c-35.06-35.06-54.374-81.674-54.374-131.263s19.314-96.203,54.374-131.263
	c72.387-72.385,190.154-72.385,262.532-0.006C530.096,126.671,530.096,244.439,457.71,316.824z"/>
<path style="fill:#C8D2DC;" d="M457.71,316.824c-36.185,36.185-83.727,54.289-131.263,54.289
	c-47.542-0.007-95.076-18.104-131.27-54.296L457.71,54.286C530.096,126.671,530.096,244.439,457.71,316.824z"/>
<path style="fill:#00B6BE;" d="M424.768,283.882c-27.109,27.109-62.715,40.667-98.319,40.66c-35.612,0-71.224-13.551-98.333-40.66
	c-26.26-26.26-40.724-61.185-40.724-98.326s14.464-72.066,40.724-98.326c54.218-54.218,142.435-54.218,196.653,0
	c26.267,26.267,40.738,61.185,40.738,98.326C465.506,222.696,451.034,257.615,424.768,283.882z"/>
<path style="fill:#007A9F;" d="M424.768,283.882c-27.109,27.109-62.715,40.667-98.319,40.66c-35.612,0-71.224-13.551-98.333-40.66
	L424.768,87.229c26.267,26.267,40.738,61.185,40.738,98.326C465.506,222.696,451.034,257.615,424.768,283.882z"/>
<g>
</g>
<g>
</g>
<g>
</g>
<g>
</g>
<g>
</g>
<g>
</g>
<g>
</g>
<g>
</g>
<g>
</g>
<g>
</g>
<g>
</g>
<g>
</g>
<g>
</g>
<g>
</g>
<g>
</g>
</svg>
