<svg height="401pt" viewBox="0 -24 401.32796 401" width="401pt" xmlns="http://www.w3.org/2000/svg"><path d="m267.929688 98.832031h-152.988282c-22.09375 0-40 17.910157-40 40v207.742188c-12.238281 7.074219-26.894531 8.644531-40.351562 4.320312l.351562-1.070312v-242.992188c0-22.089843 17.90625-40 40-40h160.988282c17.671874 0 32 14.328125 32 32zm0 0" fill="#2561a1"/><path d="m74.941406 346.574219c11.867188-6.875 20.382813-18.332031 23.546875-31.679688l43.601563-153.949219c4.277344-18.039062 20.382812-30.777343 38.921875-30.78125h180.316406c11.96875 0 23.304687 5.359376 30.902344 14.605469 7.597656 9.242188 10.65625 21.40625 8.339843 33.144531l-34.199218 143.128907c-3.703125 18.742187-20.136719 32.25-39.242188 32.25h-277.207031c8.785156.003906 17.417969-2.3125 25.019531-6.71875zm0 0" fill="#e48e66"/><path d="m327.929688 81.523438v48.640624h-20c.003906-17.300781-14.019532-31.328124-31.320313-31.332031h-8.679687c0-17.671875-14.328126-32-32-32h-160.988282c-22.09375 0-40 17.910157-40 40v242.992188l-.351562 1.070312c-20.613282-6.664062-34.58593775-25.855469-34.589844-47.519531v-260.75c0-23.449219 19.011719-42.460938 42.460938-42.460938h99c9.652343 0 18.980468 3.492188 26.257812 9.828126l22.109375 19.242187c7.28125 6.339844 16.609375 9.832031 26.261719 9.828125h69.390625c23.445312.007812 42.449219 19.015625 42.449219 42.460938zm0 0" fill="#f8ec7d"/><path d="m307.929688 130.164062h-126.917969c-18.539063.003907-34.644531 12.742188-38.921875 30.78125l-43.601563 153.949219c-3.164062 13.347657-11.679687 24.804688-23.546875 31.679688v-207.742188c0-22.089843 17.90625-40 40-40h161.667969c17.300781.003907 31.324219 14.03125 31.320313 31.332031zm0 0" fill="#6fe3ff"/></svg>