<svg width="72" height="72" viewBox="0 0 72 72" fill="none" xmlns="http://www.w3.org/2000/svg">
<path d="M1.40625 32.625H70.5938V64.9688H1.40625V32.625Z" fill="#6E83B7"/>
<path d="M48.375 57.9375V62.1562H17.1562V57.9375H48.375Z" fill="#FFB0AA"/>
<path d="M4.21875 57.9375H9.28125V62.1562H4.21875V57.9375Z" fill="#466089"/>
<path d="M10.6875 57.9375H15.75V62.1562H10.6875V57.9375Z" fill="#466089"/>
<path d="M14.625 52.3125H19.6875V56.5312H14.625V52.3125Z" fill="#466089"/>
<path d="M4.21875 52.3125H13.2188V56.5312H4.21875V52.3125Z" fill="#466089"/>
<path d="M46.9688 52.3125H54.8438V56.5312H46.9688V52.3125Z" fill="#466089"/>
<path d="M4.21875 46.6875H11.25V50.9062H4.21875V46.6875Z" fill="#466089"/>
<path d="M62.7188 57.9375H67.7812V62.1562H62.7188V57.9375Z" fill="#FFE352"/>
<path d="M62.7188 52.3125H67.7812V56.5312H62.7188V52.3125Z" fill="#466089"/>
<path d="M62.7188 46.6875H67.7812V50.9062H62.7188V46.6875Z" fill="#466089"/>
<path d="M62.7188 41.0625H67.7812V45.2812H62.7188V41.0625Z" fill="#466089"/>
<path d="M56.25 57.9375H61.3125V62.1562H56.25V57.9375Z" fill="#FFE352"/>
<path d="M56.25 52.3125H61.3125V56.5312H56.25V52.3125Z" fill="#FFE352"/>
<path d="M49.7812 57.9375H54.8438V62.1562H49.7812V57.9375Z" fill="#FFE352"/>
<path d="M17.7188 46.6875V50.9062H12.6562V46.6875H17.7188Z" fill="#FFB0AA"/>
<path d="M4.21875 41.0625H9.28125V45.2812H4.21875V41.0625Z" fill="#466089"/>
<path d="M4.21875 35.4375H8.4375V39.6562H4.21875V35.4375Z" fill="#466089"/>
<path d="M9.84375 35.4375H14.0625V39.6562H9.84375V35.4375Z" fill="#466089"/>
<path d="M15.4688 35.4375H19.6875V39.6562H15.4688V35.4375Z" fill="#466089"/>
<path d="M21.0938 35.4375H25.3125V39.6562H21.0938V35.4375Z" fill="#466089"/>
<path d="M26.7188 35.4375H30.9375V39.6562H26.7188V35.4375Z" fill="#466089"/>
<path d="M32.3438 35.4375H36.5625V39.6562H32.3438V35.4375Z" fill="#466089"/>
<path d="M37.9688 35.4375H42.1875V39.6562H37.9688V35.4375Z" fill="#466089"/>
<path d="M33.8906 28.4062H38.1094V32.625H33.8906V28.4062Z" fill="#466089"/>
<path d="M43.5938 35.4375H47.8125V39.6562H43.5938V35.4375Z" fill="#466089"/>
<path d="M49.2188 35.4375H53.4375V39.6562H49.2188V35.4375Z" fill="#466089"/>
<path d="M54.8438 35.4375H59.0625V39.6562H54.8438V35.4375Z" fill="#466089"/>
<path d="M60.4688 35.4375H67.7812V39.6562H60.4688V35.4375Z" fill="#466089"/>
<path d="M24.1875 46.6875V50.9062H19.125V46.6875H24.1875Z" fill="#FFB0AA"/>
<path d="M30.6562 46.6875V50.9062H25.5938V46.6875H30.6562Z" fill="#FFB0AA"/>
<path d="M32.0625 46.6875H37.125V50.9062H32.0625V46.6875Z" fill="#466089"/>
<path d="M38.5312 46.6875H43.5938V50.9062H38.5312V46.6875Z" fill="#466089"/>
<path d="M45 46.6875H50.0625V50.9062H45V46.6875Z" fill="#466089"/>
<path d="M10.6875 41.0625H15.75V45.2812H10.6875V41.0625Z" fill="#466089"/>
<path d="M22.2188 41.0625V45.2812H17.1562V41.0625H22.2188Z" fill="#FFB0AA"/>
<path d="M23.625 41.0625H28.6875V45.2812H23.625V41.0625Z" fill="#466089"/>
<path d="M30.0938 41.0625H35.1562V45.2812H30.0938V41.0625Z" fill="#466089"/>
<path d="M36.5625 41.0625H41.625V45.2812H36.5625V41.0625Z" fill="#466089"/>
<path d="M43.0312 41.0625H48.0938V45.2812H43.0312V41.0625Z" fill="#466089"/>
<path d="M49.5 41.0625H54.5625V45.2812H49.5V41.0625Z" fill="#466089"/>
<path d="M55.9688 41.0625V46.6875H51.6094V50.9062H61.3125V41.0625H55.9688Z" fill="#98CA69"/>
<path d="M21.0938 52.3125H26.1562V56.5312H21.0938V52.3125Z" fill="#466089"/>
<path d="M27.5625 52.3125H32.625V56.5312H27.5625V52.3125Z" fill="#466089"/>
<path d="M34.0312 52.3125H39.0938V56.5312H34.0312V52.3125Z" fill="#466089"/>
<path d="M40.5 52.3125H45.5625V56.5312H40.5V52.3125Z" fill="#466089"/>
<path d="M37.4062 28.4062H34.5938V27.1406C34.5938 24.8144 36.4863 22.9219 38.8125 22.9219H44.0156C45.6441 22.9219 46.9688 21.597 46.9688 19.9688C46.9688 18.3405 45.6441 17.0156 44.0156 17.0156H38.8125C36.4863 17.0156 34.5938 15.1231 34.5938 12.7969V6.89062H37.4062V12.7969C37.4062 13.5723 38.0371 14.2031 38.8125 14.2031H44.0156C47.1947 14.2031 49.7812 16.7896 49.7812 19.9688C49.7812 23.1479 47.1947 25.7344 44.0156 25.7344H38.8125C38.0371 25.7344 37.4062 26.3652 37.4062 27.1406V28.4062Z" fill="#6E83B7"/>
</svg>
