<svg height="480pt" viewBox="-63 0 479 480" width="480pt" xmlns="http://www.w3.org/2000/svg"><path d="m296.5 8v80l-24-32-24 32v-80zm0 0" fill="#bddbff"/><path d="m208.5 256h64c0 17.671875-14.328125 32-32 32s-32-14.328125-32-32zm0 0" fill="#bddbff"/><path d="m80.5 256h64c0 17.671875-14.328125 32-32 32s-32-14.328125-32-32zm0 0" fill="#bddbff"/><g fill="#3d9ae2"><path d="m328.5 0h-304c-13.253906 0-24 10.746094-24 24v432c0 13.253906 10.746094 24 24 24h304c13.253906 0 24-10.746094 24-24v-432c0-13.253906-10.746094-24-24-24zm-72 16h32v48l-9.601562-12.800781c-1.574219-1.914063-3.921876-3.019531-6.398438-3.019531s-4.824219 1.105468-6.398438 3.019531l-9.601562 12.800781zm80 440c0 4.417969-3.582031 8-8 8h-304c-4.417969 0-8-3.582031-8-8v-432c0-4.417969 3.582031-8 8-8h216v72c0 3.445312 2.203125 6.5 5.46875 7.589844 3.269531 1.089844 6.863281-.035156 8.929688-2.789063l17.601562-23.464843 17.601562 23.464843c1.507813 2.011719 3.878907 3.199219 6.398438 3.199219.859375-.003906 1.710938-.140625 2.527344-.40625 3.269531-1.089844 5.472656-4.148438 5.472656-7.59375v-72h24c4.417969 0 8 3.582031 8 8zm0 0"/><path d="m128.5 112h96v16h-96zm0 0"/><path d="m128.5 80h96v16h-96zm0 0"/><path d="m48.5 360h48v16h-48zm0 0"/><path d="m112.5 360h112v16h-112zm0 0"/><path d="m240.5 360h16v16h-16zm0 0"/><path d="m272.5 360h32v16h-32zm0 0"/><path d="m48.5 392h160v16h-160zm0 0"/><path d="m224.5 392h80v16h-80zm0 0"/><path d="m112.5 296c22.082031-.027344 39.972656-17.917969 40-40 0-1.242188-.285156-2.464844-.839844-3.574219l-26.214844-52.425781h28.527344c2.417969 6.777344 7.75 12.109375 14.527344 14.527344v97.472656h-40v16h96v-16h-40v-97.472656c6.777344-2.417969 12.109375-7.75 14.527344-14.527344h28.527344l-26.253907 52.425781c-.539062 1.113281-.8125 2.335938-.800781 3.574219 0 22.089844 17.910156 40 40 40s40-17.910156 40-40c.011719-1.238281-.261719-2.460938-.800781-3.574219l-26.253907-52.425781h11.054688v-16h-65.472656c-2.417969-6.777344-7.75-12.109375-14.527344-14.527344v-9.472656h-16v9.472656c-6.777344 2.417969-12.109375 7.75-14.527344 14.527344h-65.472656v16h11.054688l-26.214844 52.425781c-.554688 1.109375-.839844 2.332031-.839844 3.574219.027344 22.082031 17.917969 39.972656 40 40zm128-86.113281 19.054688 38.113281h-38.109376zm0 70.113281c-10.132812-.046875-19.144531-6.449219-22.519531-16h45.039062c-3.375 9.550781-12.386719 15.953125-22.519531 16zm-64-96c4.417969 0 8 3.582031 8 8s-3.582031 8-8 8-8-3.582031-8-8 3.582031-8 8-8zm-64 96c-10.132812-.046875-19.144531-6.449219-22.519531-16h45.039062c-3.375 9.550781-12.386719 15.953125-22.519531 16zm-19.054688-32 19.054688-38.113281 19.054688 38.113281zm0 0"/><path d="m96.5 312h16v16h-16zm0 0"/><path d="m240.5 312h16v16h-16zm0 0"/></g></svg>