<svg width="72" height="72" viewBox="0 0 72 72" fill="" xmlns="http://www.w3.org/2000/svg">
<path d="M30.5402 61.272L30.0002 67.8H4.11624C3.39848 67.8023 2.71737 67.4833 2.2597 66.9303C1.80203 66.3774 1.61586 65.6487 1.75224 64.944L7.00824 37.968C7.1173 37.4044 7.61021 36.997 8.18424 36.996H11.5202L7.52424 61.02C7.45982 61.4316 7.61172 61.8473 7.92628 62.1204C8.24084 62.3935 8.67379 62.4856 9.07224 62.364C16.0042 60.0997 23.4143 59.7228 30.5402 61.272V61.272Z" fill="#CAD9FC"/>
<path d="M67.884 67.8H42L41.46 61.272C48.5859 59.7228 55.996 60.0997 62.928 62.364C63.3264 62.4856 63.7594 62.3935 64.0739 62.1204C64.3885 61.8473 64.5404 61.4316 64.476 61.02L60.48 36.996H63.816C64.39 36.997 64.8829 37.4044 64.992 37.968L70.248 64.944C70.3843 65.6487 70.1982 66.3774 69.7405 66.9303C69.2828 67.4833 68.6017 67.8023 67.884 67.8V67.8Z" fill="#CAD9FC"/>
<path d="M70.248 64.944L64.992 37.968C64.8829 37.4044 64.39 36.997 63.816 36.996H60.48L60.4884 37.044C60.9439 37.1496 61.2965 37.5103 61.392 37.968L66.648 64.944C66.7844 65.6487 66.5982 66.3774 66.1405 66.9303C65.6828 67.4833 65.0017 67.8023 64.284 67.8H67.884C68.6017 67.8023 69.2829 67.4833 69.7405 66.9303C70.1982 66.3774 70.3844 65.6487 70.248 64.944Z" fill="#A4C2F7"/>
<path d="M62.9283 62.364C55.9963 60.0997 48.5863 59.7228 41.4603 61.272C39.5857 61.6584 37.7559 62.2374 36.0003 63C34.2447 62.2374 32.415 61.6584 30.5403 61.272C23.4144 59.7228 16.0043 60.0997 9.07233 62.364C8.67389 62.4855 8.24093 62.3935 7.92637 62.1204C7.61181 61.8473 7.45992 61.4316 7.52433 61.02L11.5203 36.996L11.8563 34.968C11.9423 34.4533 12.3487 34.0518 12.8643 33.972C13.6803 33.852 14.5203 33.732 15.3603 33.636C16.8267 36.4865 19.7628 38.2787 22.9683 38.28C23.9796 38.2786 24.9828 38.0999 25.9323 37.752C26.6701 39.891 28.4949 41.4725 30.7171 41.8986C32.9393 42.3247 35.2197 41.5304 36.6963 39.816C37.8977 40.2833 39.1753 40.5233 40.4643 40.524H40.5363C40.7883 42.684 41.9163 43.956 45.6843 45.216C46.839 45.5846 47.8691 46.2658 48.6603 47.184C49.3657 48.0578 50.5609 48.3652 51.6003 47.94C52.5154 47.5447 53.1091 46.6447 53.1123 45.648C53.1136 45.3872 53.0731 45.128 52.9923 44.88C52.6484 43.7342 52.1128 42.6549 51.4083 41.688C53.7922 40.4053 55.465 38.1101 55.9563 35.448C56.4239 34.9307 56.8012 34.3384 57.0723 33.696C57.7683 33.78 58.4523 33.864 59.1363 33.972C59.652 34.0518 60.0583 34.4533 60.1443 34.968L60.4803 36.996L64.4763 61.02C64.5408 61.4316 64.3889 61.8473 64.0743 62.1204C63.7597 62.3935 63.3268 62.4855 62.9283 62.364V62.364Z" fill="white"/>
<path d="M64.4762 61.02L60.4802 36.996L60.1442 34.968C60.0582 34.4533 59.6518 34.0518 59.1362 33.972C58.4522 33.864 57.7682 33.78 57.0722 33.696C56.9078 34.0712 56.7068 34.4294 56.4722 34.7652C56.501 34.8306 56.5239 34.8985 56.5406 34.968L56.8766 36.996L60.8726 61.02C60.911 61.2667 60.8689 61.5191 60.7526 61.74C61.4726 61.9284 62.1926 62.1312 62.921 62.3652C63.3206 62.4901 63.7564 62.3994 64.073 62.1255C64.3897 61.8516 64.5422 61.4334 64.4762 61.02V61.02Z" fill="#E8EDFC"/>
<path d="M42 67.8C42 69.12 39.312 70.2 36 70.2C32.688 70.2 30 69.12 30 67.8L30.54 61.272C32.4147 61.6584 34.2444 62.2374 36 63C37.7556 62.2374 39.5853 61.6584 41.46 61.272L42 67.8Z" fill="#CAD9FC"/>
<path d="M57.6 31.188C57.6047 32.0521 57.4247 32.9072 57.072 33.696C56.8008 34.3384 56.4235 34.9307 55.956 35.448C55.4647 38.1101 53.7918 40.4053 51.408 41.688C52.1124 42.6549 52.648 43.7342 52.992 44.88C53.0727 45.128 53.1132 45.3872 53.112 45.648C53.1087 46.6447 52.515 47.5448 51.6 47.94C50.5606 48.3652 49.3653 48.0578 48.66 47.184C47.8687 46.2658 46.8387 45.5846 45.684 45.216C41.916 43.956 40.788 42.684 40.536 40.524H40.464C39.175 40.5233 37.8973 40.2833 36.696 39.816C35.2194 41.5304 32.9389 42.3247 30.7167 41.8986C28.4946 41.4725 26.6697 39.891 25.932 37.752C24.9824 38.0999 23.9792 38.2786 22.968 38.28C19.7247 38.2777 16.7603 36.4456 15.3078 33.5458C13.8553 30.6459 14.1635 27.1747 16.104 24.576C15.9596 24.1841 15.8865 23.7696 15.888 23.352C15.8844 21.5692 17.1403 20.032 18.888 19.68C18.876 19.536 18.864 19.392 18.864 19.236C18.8653 16.5591 21.035 14.3893 23.712 14.388C24.4396 14.3845 25.1582 14.5488 25.812 14.868C27.0895 12.7171 29.4063 11.3991 31.908 11.4C33.6244 11.3938 35.2826 12.022 36.564 13.164C37.2996 11.9774 38.6376 11.3026 40.029 11.4165C41.4205 11.5303 42.631 12.4136 43.164 13.704C43.5067 13.6657 43.8512 13.6457 44.196 13.644C48.8455 13.6517 52.7147 17.2185 53.1 21.852H53.136C54.1247 21.852 55.0727 22.2456 55.7707 22.9458C56.4686 23.646 56.8592 24.5953 56.856 25.584C56.8537 26.2305 56.6886 26.8661 56.376 27.432C57.1723 28.5223 57.601 29.8378 57.6 31.188V31.188Z" fill="#E8EDFC"/>
<path d="M56.3759 27.432C56.6885 26.8661 56.8536 26.2305 56.8559 25.584C56.8591 24.5953 56.4686 23.646 55.7706 22.9458C55.0726 22.2456 54.1246 21.852 53.1359 21.852H53.0999C52.7147 17.2185 48.8454 13.6517 44.1959 13.644C43.8511 13.6457 43.5066 13.6657 43.1639 13.704C42.7623 12.7204 41.9579 11.9564 40.9549 11.6059C39.9519 11.2554 38.8468 11.3522 37.9199 11.8716C38.6615 12.2763 39.2418 12.9231 39.5639 13.704C39.9066 13.6657 40.2511 13.6457 40.5959 13.644C45.2454 13.6517 49.1147 17.2185 49.4999 21.852H49.5359C50.5246 21.852 51.4726 22.2456 52.1706 22.9458C52.8686 23.646 53.2591 24.5953 53.2559 25.584C53.2536 26.2305 53.0885 26.8661 52.7759 27.432C53.5723 28.5223 54.001 29.8378 53.9999 31.188C54.0047 32.0521 53.8247 32.9072 53.4719 33.696C53.2008 34.3384 52.8235 34.9307 52.3559 35.448C51.8646 38.1101 50.1917 40.4053 47.8079 41.688C48.5124 42.6549 49.0479 43.7342 49.3919 44.88C49.4727 45.128 49.5132 45.3872 49.5119 45.648C49.5031 46.2804 49.2533 46.8855 48.8135 47.34C49.507 48.0909 50.5905 48.339 51.5416 47.9646C52.4927 47.5902 53.1164 46.6702 53.1119 45.648C53.1132 45.3872 53.0727 45.128 52.9919 44.88C52.648 43.7342 52.1124 42.6549 51.4079 41.688C53.7917 40.4053 55.4646 38.1101 55.9559 35.448C56.4235 34.9307 56.8008 34.3384 57.0719 33.696C57.4247 32.9072 57.6047 32.0521 57.5999 31.188C57.601 29.8378 57.1723 28.5223 56.3759 27.432V27.432Z" fill="#CAD9FC"/>
<path d="M24.1621 37.9752C21.4678 37.1709 19.335 35.1034 18.4473 32.4354C17.5597 29.7674 18.0287 26.8341 19.7041 24.576C19.3464 23.557 19.4475 22.4329 19.9814 21.4941C20.5152 20.5553 21.4295 19.8936 22.4881 19.68C22.2809 17.5436 23.5171 15.5293 25.5157 14.7468C23.951 14.1179 22.1717 14.3485 20.819 15.3554C19.4662 16.3623 18.7347 18.0006 18.8881 19.68C17.8295 19.8936 16.9152 20.5553 16.3814 21.4941C15.8475 22.4329 15.7464 23.557 16.1041 24.576C12.1873 29.7696 14.9833 38.604 24.8917 38.67" fill="white"/>
<path d="M11.5202 36.996H8.18424C7.61021 36.997 7.1173 37.4044 7.00824 37.968L1.75224 64.944C1.61586 65.6487 1.80203 66.3774 2.2597 66.9303C2.71737 67.4833 3.39848 67.8023 4.11624 67.8H7.71624C6.99848 67.8023 6.31737 67.4833 5.8597 66.9303C5.40204 66.3774 5.21586 65.6487 5.35224 64.944L10.6082 37.968C10.7173 37.4044 11.2102 36.997 11.7842 36.996" fill="white"/>
<path d="M4.01172 47.1503L5.84532 37.7232L8.20212 38.1816L6.36852 47.6087L4.01172 47.1503Z" fill="white"/>
<path d="M6.12008 43.8792C5.45734 43.8825 4.91739 43.3479 4.91408 42.6852C4.91076 42.0225 5.44534 41.4825 6.10808 41.4792H6.12008C6.78282 41.4792 7.32008 42.0165 7.32008 42.6792C7.32008 43.3419 6.78282 43.8792 6.12008 43.8792Z" fill="#428DFF"/>
<path d="M66.1717 37.7436C65.9548 36.6137 64.9666 35.7967 63.8161 35.796H61.4989L61.3285 34.7748C61.1585 33.7491 60.3504 32.9478 59.3233 32.7864C59.0953 32.7504 58.8649 32.7264 58.6381 32.6952C59.031 30.8606 58.7046 28.9452 57.7261 27.3444C58.243 26.0034 58.1466 24.5032 57.462 23.2394C56.7775 21.9756 55.5737 21.0752 54.1681 20.7756C53.2694 15.966 49.0852 12.4699 44.1925 12.4404C44.0725 12.4404 43.9657 12.456 43.8517 12.4596C43.0699 11.2318 41.7809 10.417 40.3365 10.2373C38.8921 10.0576 37.4428 10.5319 36.3841 11.5308C35.0503 10.6638 33.494 10.2016 31.9033 10.2C29.3401 10.2105 26.9245 11.4002 25.3537 13.4256C23.6095 12.917 21.7287 13.2293 20.2425 14.2742C18.7563 15.3192 17.826 16.9834 17.7145 18.7968C15.8825 19.5669 14.6904 21.3599 14.6893 23.3472C14.693 23.6917 14.7332 24.0348 14.8093 24.3708C13.1891 26.8132 12.7658 29.8592 13.6585 32.6508C13.3369 32.6952 13.0081 32.7348 12.6985 32.7804C11.666 32.9362 10.8507 33.7379 10.6777 34.7676L10.5073 35.7924H8.18406C7.03354 35.7931 6.04534 36.6101 5.82846 37.74C5.76833 38.0527 5.83496 38.3765 6.01366 38.64C6.19237 38.9036 6.46851 39.0853 6.78126 39.1452C6.85643 39.1595 6.93276 39.1667 7.00926 39.1668C7.58358 39.165 8.07609 38.7565 8.18406 38.1924H10.1041L6.33846 60.8268C6.20602 61.6505 6.50932 62.4841 7.14014 63.0301C7.77097 63.5761 8.63944 63.7568 9.43566 63.5076C15.8329 61.435 22.6482 61.0026 29.2561 62.25L28.8985 66.6H4.11606C3.75405 66.6002 3.41098 66.4382 3.18126 66.1584C2.95452 65.8845 2.86209 65.5236 2.92926 65.1744L6.34926 47.622C6.47684 46.9715 6.05294 46.3408 5.40246 46.2132C4.75198 46.0856 4.12124 46.5095 3.99366 47.16L0.574864 64.7136C0.369646 65.7702 0.647932 66.8631 1.33344 67.6929C2.01895 68.5226 3.03976 69.0022 4.11606 69H29.1409C30.1345 70.6392 33.1537 71.4 36.0001 71.4C38.8165 71.4 41.8069 70.6572 42.8293 69H67.8841C68.9601 69.0021 69.9807 68.5227 70.6661 67.6933C71.3516 66.8638 71.6301 65.7712 71.4253 64.7148L66.1717 37.7436ZM19.6117 20.8128C20.4073 20.8104 21.1561 21.1886 21.6265 21.8304C22.0215 22.3632 22.7736 22.475 23.3065 22.08C23.8393 21.685 23.9511 20.9328 23.5561 20.4C22.7412 19.3109 21.5064 18.6143 20.1529 18.48C20.5106 16.7994 21.9926 15.5963 23.7109 15.5916C23.8573 15.599 24.0031 15.615 24.1477 15.6396C24.0511 15.8856 23.967 16.1363 23.8957 16.3908C23.7463 17.026 24.1319 17.6641 24.7637 17.8273C25.3956 17.9905 26.0419 17.6189 26.2189 16.9908C26.3553 16.4634 26.565 15.9577 26.8417 15.4884C27.9061 13.7051 29.8265 12.6093 31.9033 12.6C33.0335 12.605 34.138 12.9385 35.0821 13.56C34.9022 14.0653 34.8069 14.5969 34.8001 15.1332C34.8001 15.7959 35.3373 16.3332 36.0001 16.3332C36.6628 16.3332 37.2001 15.7959 37.2001 15.1332C37.2001 13.7391 38.3302 12.609 39.7243 12.609C41.1183 12.609 42.2485 13.7391 42.2485 15.1332C42.2485 15.7959 42.7857 16.3332 43.4485 16.3332C44.1112 16.3332 44.6485 15.7959 44.6485 15.1332C44.6485 15.0408 44.6257 14.9532 44.6209 14.8608C48.0569 15.0728 50.9462 17.5152 51.7273 20.868C51.1675 21.031 50.6416 21.2931 50.1745 21.642C49.8315 21.8992 49.6518 22.3199 49.7031 22.7455C49.7544 23.1712 50.0288 23.5371 50.4231 23.7055C50.8173 23.8739 51.2715 23.8192 51.6145 23.562C52.5734 22.852 53.898 22.9086 54.7929 23.6979C55.6877 24.4871 55.9094 25.7943 55.3249 26.8344C55.0636 27.2937 54.6667 27.6609 54.1885 27.8856C53.687 28.1284 53.4186 28.6845 53.5405 29.2282C53.6624 29.7719 54.1425 30.1601 54.6997 30.1656C54.8756 30.1659 55.0494 30.1269 55.2085 30.0516C55.5265 29.8975 55.827 29.7096 56.1049 29.4912C56.7252 31.2547 56.3361 33.216 55.0897 34.6092L55.0609 34.6392C53.4975 36.3327 51.0037 36.7904 48.9409 35.7624C48.7388 35.6557 48.5447 35.5346 48.3601 35.4C49.2439 34.1608 49.366 32.5331 48.6769 31.176C48.4839 30.7929 48.1013 30.5419 47.6731 30.5174C47.2449 30.493 46.8362 30.6988 46.6009 31.0574C46.3656 31.416 46.3395 31.8729 46.5325 32.256C46.9271 33.0491 46.6809 34.0116 45.9541 34.518C45.5272 34.8022 44.9999 34.8921 44.503 34.7653C44.0061 34.6386 43.5863 34.3071 43.3477 33.8532C43.1558 33.4697 42.7739 33.2177 42.3459 33.1921C41.9179 33.1665 41.5087 33.3712 41.2725 33.7291C41.0363 34.087 41.009 34.5437 41.2009 34.9272C41.9046 36.3479 43.3547 37.245 44.9401 37.2408C45.4562 37.2373 45.9671 37.1367 46.4461 36.9444C46.8747 37.3196 47.3469 37.6419 47.8525 37.9044C49.5627 38.7909 51.5515 38.9747 53.3953 38.4168C52.2094 40.036 50.4346 41.1242 48.4537 41.4468C47.8374 41.5471 47.401 42.1033 47.4502 42.7257C47.4994 43.3482 48.0177 43.8289 48.6421 43.8312C48.7059 43.8312 48.7697 43.8264 48.8329 43.8168C49.5636 43.6903 50.2777 43.4818 50.9617 43.1952C51.3313 43.8488 51.6314 44.5394 51.8569 45.2556C51.8982 45.3806 51.9192 45.5115 51.9193 45.6432C51.919 46.1618 51.6092 46.6303 51.1321 46.8336C50.5801 47.0471 49.9534 46.8786 49.5829 46.4172C48.6535 45.3259 47.4366 44.5172 46.0705 44.0832C43.4773 43.2144 42.4765 42.438 42.0517 41.5932C42.6743 41.5155 43.2895 41.3871 43.8913 41.2092C44.3011 41.0831 44.6126 40.748 44.7084 40.3301C44.8041 39.9121 44.6697 39.4748 44.3556 39.1829C44.0415 38.8909 43.5955 38.7888 43.1857 38.9148C42.5123 39.1214 41.8173 39.249 41.1145 39.2952C39.7605 39.401 38.4002 39.1958 37.1377 38.6952C36.6636 38.5103 36.1245 38.6445 35.7925 39.03C34.0453 41.0369 31.055 41.378 28.9008 39.8162C26.7465 38.2543 26.141 35.3061 27.5053 33.0216C27.7263 32.6527 27.7337 32.1939 27.5247 31.818C27.3157 31.4422 26.9221 31.2064 26.4921 31.1994C26.0621 31.1925 25.6611 31.4155 25.4401 31.7844C25.1538 32.2717 24.9235 32.7898 24.7537 33.3288C23.8087 33.2791 23.0636 32.5062 23.0485 31.56V31.53C23.0478 31.2133 22.9207 30.9101 22.6954 30.6877C22.47 30.4652 22.1651 30.3421 21.8485 30.3456C21.1829 30.3522 20.6471 30.8943 20.6485 31.56C20.6538 33.6882 22.2587 35.4719 24.3745 35.7012C24.3788 36.1035 24.4153 36.5047 24.4837 36.9012C21.8043 37.481 19.0253 36.5179 17.2793 34.4044C15.5333 32.291 15.1119 29.3802 16.1869 26.8584C16.4553 27.13 16.755 27.3689 17.0797 27.57C17.6465 27.9021 18.3751 27.7166 18.7141 27.1538C19.0531 26.5911 18.8766 25.8603 18.3181 25.5144C17.3437 24.9286 16.8787 23.7656 17.1806 22.6695C17.4824 21.5734 18.4772 20.8125 19.6141 20.808L19.6117 20.8128ZM8.70726 61.2168L13.0381 35.16C13.5913 35.0784 14.1625 35.0064 14.7301 34.932C16.9488 38.4776 21.1922 40.1991 25.2541 39.2016C26.3455 41.273 28.3397 42.7175 30.6482 43.1088C32.9566 43.5 35.3155 42.7933 37.0285 41.1972C37.844 41.4404 38.6839 41.5926 39.5329 41.6508C40.1125 43.8492 41.7877 45.1812 45.3073 46.3608C46.2561 46.6582 47.1025 47.2157 47.7505 47.97C48.4708 48.8266 49.5305 49.3244 50.6497 49.332C51.1391 49.3318 51.6236 49.2331 52.0741 49.0416C53.4343 48.4603 54.3167 47.1237 54.3169 45.6444C54.318 45.2586 54.2564 44.8752 54.1345 44.5092C53.8646 43.6613 53.5092 42.8431 53.0737 42.0672C55.1142 40.6003 56.5357 38.4263 57.0613 35.9688C57.3168 35.6651 57.548 35.3417 57.7525 35.0016C58.1545 35.0532 58.5565 35.0988 58.9609 35.166L63.2929 61.2228C54.8251 58.3952 45.6679 58.3952 37.2001 61.2228V46.2C37.2001 45.5373 36.6628 45 36.0001 45C35.3373 45 34.8001 45.5373 34.8001 46.2V61.2264C26.3332 58.3962 17.1762 58.3929 8.70726 61.2168V61.2168ZM36.0001 69C33.1093 69 31.4509 68.1456 31.2073 67.7652L31.6201 62.7852C32.9396 63.1137 34.2308 63.5467 35.4817 64.08C35.6434 64.1579 35.8205 64.1989 36.0001 64.2C36.1801 64.1997 36.3577 64.1587 36.5197 64.08C37.7697 63.5436 39.0606 63.1078 40.3801 62.7768L40.7929 67.764C40.5493 68.1456 38.8909 69 36.0001 69V69ZM68.8189 66.1584C68.5891 66.4382 68.2461 66.6002 67.8841 66.6H43.1053L42.7453 62.2416C49.3568 60.9968 56.1751 61.4329 62.5741 63.51C63.3701 63.7559 64.2367 63.5727 64.8651 63.0256C65.4935 62.4786 65.7944 61.6455 65.6605 60.8232L61.8985 38.1972H63.8185L69.0745 65.1732C69.141 65.5233 69.0472 65.8848 68.8189 66.1584V66.1584Z" fill="#428DFF"/>
<path d="M32.0233 27.822C31.5321 28.2665 31.4939 29.0249 31.9381 29.5164C32.9561 30.6403 34.3014 31.4161 35.7841 31.734C35.1126 32.6803 34.0236 33.2418 32.8633 33.24C32.2006 33.24 31.6633 33.7773 31.6633 34.44C31.6633 35.1027 32.2006 35.64 32.8633 35.64C35.3475 35.6499 37.5765 34.1156 38.4541 31.7916C41.438 31.2971 43.8003 29.0004 44.3785 26.0316C44.4679 25.607 44.321 25.1672 43.9944 24.8814C43.6679 24.5957 43.2125 24.5085 42.8035 24.6534C42.3944 24.7983 42.0955 25.1528 42.0217 25.5804C41.7864 26.8181 41.0723 27.9129 40.0345 28.6272C38.038 29.9718 35.3604 29.6666 33.7177 27.9072C33.2733 27.416 32.5148 27.3778 32.0233 27.822V27.822Z" fill="#428DFF"/>
<path d="M27.8401 26.52C28.5029 26.52 29.0401 25.9827 29.0401 25.32C29.0401 24.4925 29.3689 23.6989 29.954 23.1138C30.5391 22.5287 31.3327 22.2 32.1601 22.2C32.8229 22.2 33.3601 21.6627 33.3601 21C33.3601 20.3373 32.8229 19.8 32.1601 19.8C29.1129 19.8033 26.6434 22.2728 26.6401 25.32C26.6401 25.6383 26.7666 25.9435 26.9916 26.1685C27.2167 26.3936 27.5219 26.52 27.8401 26.52V26.52Z" fill="#428DFF"/>
<path d="M37.2003 3V1.8C37.2003 1.13726 36.663 0.599998 36.0003 0.599998C35.3376 0.599998 34.8003 1.13726 34.8003 1.8V3C34.8003 3.66274 35.3376 4.2 36.0003 4.2C36.663 4.2 37.2003 3.66274 37.2003 3Z" fill="#428DFF"/>
<path d="M55.6919 9.2112L54.4919 10.4112C54.1799 10.7125 54.0548 11.1587 54.1646 11.5782C54.2744 11.9978 54.6021 12.3254 55.0217 12.4352C55.4412 12.5451 55.8874 12.42 56.1887 12.108L57.3887 10.908C57.7006 10.6067 57.8257 10.1605 57.7159 9.74099C57.6061 9.32144 57.2784 8.99378 56.8589 8.88396C56.4393 8.77415 55.9932 8.89925 55.6919 9.2112Z" fill="#428DFF"/>
<path d="M16.6594 12.4596C17.1447 12.4595 17.5821 12.1671 17.7678 11.7188C17.9535 11.2704 17.8509 10.7544 17.5078 10.4112L16.3078 9.2112C16.0065 8.89925 15.5604 8.77415 15.1408 8.88396C14.7212 8.99378 14.3936 9.32144 14.2838 9.74099C14.1739 10.1605 14.2991 10.6067 14.611 10.908L15.811 12.108C16.036 12.3331 16.3412 12.4595 16.6594 12.4596Z" fill="#428DFF"/>
<path d="M25.8971 7.41C26.0548 7.40966 26.2109 7.37869 26.3567 7.3188C26.6509 7.19697 26.8845 6.96325 27.0063 6.6691C27.128 6.37494 27.1279 6.04446 27.0059 5.7504L25.6271 2.424C25.4692 2.01885 25.1044 1.73085 24.6737 1.6712C24.243 1.61155 23.8137 1.7896 23.5516 2.13658C23.2895 2.48356 23.2356 2.94519 23.4107 3.3432L24.7883 6.6696C24.9742 7.11791 25.4118 7.41012 25.8971 7.41V7.41Z" fill="#428DFF"/>
<path d="M47.9398 1.7748C47.3278 1.5216 46.6264 1.81217 46.3726 2.424L44.9938 5.7504C44.8715 6.0446 44.8712 6.37538 44.993 6.66982C45.1147 6.96426 45.3486 7.19817 45.643 7.32C45.7889 7.37989 45.945 7.41086 46.1026 7.4112C46.588 7.41132 47.0256 7.11911 47.2114 6.6708L48.5891 3.3444C48.7114 3.0502 48.7117 2.71941 48.5899 2.42498C48.4681 2.13054 48.2343 1.89662 47.9398 1.7748V1.7748Z" fill="#428DFF"/>
<path d="M60.3903 21.6984C60.5481 21.6981 60.7043 21.6667 60.8499 21.606L64.1751 20.2284C64.5712 20.0644 64.8498 19.7016 64.9059 19.2765C64.9619 18.8514 64.7869 18.4288 64.4468 18.1677C64.1068 17.9066 63.6532 17.8468 63.2571 18.0108L59.9307 19.3884C59.3999 19.6064 59.0977 20.1698 59.2097 20.7326C59.3217 21.2954 59.8165 21.7001 60.3903 21.6984Z" fill="#428DFF"/>
<path d="M11.1505 21.606C11.7629 21.8598 12.4651 21.5692 12.7189 20.9568C12.9728 20.3444 12.6821 19.6422 12.0697 19.3884L8.74335 18.0108C8.13097 17.7573 7.42905 18.0482 7.17555 18.6606C6.92205 19.273 7.21297 19.9749 7.82535 20.2284L11.1505 21.606Z" fill="#428DFF"/>
</svg>
