<svg height="512pt" viewBox="-27 0 512 512" width="512pt" xmlns="http://www.w3.org/2000/svg"><path d="m155.429688 475.429688v27.425781h146.285156v-27.425781c0-30.296876-24.5625-54.859376-54.855469-54.859376v-23.3125c11.273437-6.511718 18.238281-18.523437 18.285156-31.542968v-18.285156c0-20.199219-16.375-36.574219-36.574219-36.574219-20.195312 0-36.570312 16.375-36.570312 36.574219v18.285156c.046875 13.019531 7.011719 25.03125 18.285156 31.542968v23.3125c-30.296875 0-54.855468 24.5625-54.855468 54.859376zm0 0" fill="#bddbff"/><path d="m9.144531 173.714844v27.429687h146.285157v-27.429687c0-30.296875-24.5625-54.855469-54.859376-54.855469v-23.316406c11.277344-6.511719 18.242188-18.523438 18.289063-31.542969v-18.285156c0-20.199219-16.375-36.570313-36.574219-36.570313-20.195312 0-36.570312 16.371094-36.570312 36.570313v18.285156c.046875 13.019531 7.007812 25.03125 18.285156 31.542969v23.3125c-30.296875.003906-54.855469 24.5625-54.855469 54.859375zm0 0" fill="#bddbff"/><path d="m393.144531 118.859375v-23.316406c11.273438-6.511719 18.238281-18.523438 18.285157-31.542969v-18.285156c0-20.199219-16.375-36.570313-36.574219-36.570313-20.195313 0-36.570313 16.371094-36.570313 36.570313v18.285156c.046875 13.019531 7.011719 25.03125 18.285156 31.542969v23.3125c-30.296874 0-54.855468 24.5625-54.855468 54.859375v27.429687h146.285156v-27.429687c0-30.296875-24.558594-54.855469-54.855469-54.855469zm0 0" fill="#bddbff"/><g fill="#3d9ae2"><path d="m256 412.078125v-9.949219c11.53125-8.542968 18.320312-22.0625 18.285156-36.414062v-18.285156c0-25.246094-20.464844-45.714844-45.714844-45.714844-25.246093 0-45.714843 20.46875-45.714843 45.714844v18.285156c-.03125 14.351562 6.753906 27.871094 18.289062 36.414062v9.949219c-31.472656 4.585937-54.820312 31.550781-54.859375 63.351563v27.425781c0 5.050781 4.09375 9.144531 9.144532 9.144531h146.285156c5.046875 0 9.140625-4.09375 9.140625-9.144531v-27.425781c-.039063-31.800782-23.386719-58.765626-54.855469-63.351563zm36.570312 81.636719h-128v-18.285156c.03125-25.234376 20.480469-45.683594 45.714844-45.714844 5.050782 0 9.144532-4.09375 9.144532-9.144532v-23.3125c0-3.242187-1.714844-6.238281-4.507813-7.882812-8.5-4.851562-13.753906-13.875-13.777344-23.660156v-18.285156c0-15.148438 12.277344-27.429688 27.425781-27.429688 15.148438 0 27.429688 12.28125 27.429688 27.429688v18.285156c-.023438 9.785156-5.28125 18.808594-13.777344 23.660156-2.792968 1.644531-4.507812 4.640625-4.507812 7.882812v23.3125c0 5.050782 4.09375 9.144532 9.140625 9.144532 25.234375.03125 45.683593 20.480468 45.714843 45.714844zm0 0"/><path d="m164.570312 201.144531v-27.429687c-.039062-31.800782-23.386718-58.765625-54.855468-63.351563v-9.949219c11.53125-8.542968 18.320312-22.0625 18.285156-36.414062v-18.285156c0-25.246094-20.464844-45.714844-45.714844-45.714844-25.246094 0-45.714844 20.46875-45.714844 45.714844v18.285156c-.03125 14.351562 6.753907 27.871094 18.285157 36.414062v9.949219c-31.46875 4.585938-54.8164065 31.550781-54.855469 63.351563v27.429687c0 5.046875 4.09375 9.140625 9.144531 9.140625h146.285157c5.046874 0 9.140624-4.09375 9.140624-9.140625zm-18.285156-9.144531h-128v-18.285156c.03125-25.234375 20.480469-45.683594 45.714844-45.714844 5.050781 0 9.144531-4.09375 9.144531-9.140625v-23.316406c0-3.238281-1.714843-6.238281-4.507812-7.878907-8.5-4.851562-13.753907-13.878906-13.78125-23.664062v-18.285156c0-15.148438 12.28125-27.429688 27.429687-27.429688 15.148438 0 27.429688 12.28125 27.429688 27.429688v18.285156c-.027344 9.785156-5.28125 18.808594-13.777344 23.660156-2.792969 1.644532-4.507812 4.640625-4.507812 7.882813v23.3125c0 5.050781 4.09375 9.144531 9.140624 9.144531 25.234376.03125 45.683594 20.480469 45.714844 45.714844zm0 0"/><path d="m402.285156 110.363281v-9.949219c11.535156-8.542968 18.320313-22.0625 18.285156-36.414062v-18.285156c0-25.246094-20.464843-45.714844-45.710937-45.714844-25.25 0-45.714844 20.46875-45.714844 45.714844v18.285156c-.035156 14.351562 6.753907 27.871094 18.285157 36.414062v9.949219c-31.46875 4.585938-54.820313 31.550781-54.859376 63.351563v27.429687c0 5.046875 4.09375 9.140625 9.144532 9.140625h146.285156c5.050781 0 9.144531-4.09375 9.144531-9.140625v-27.429687c-.039062-31.800782-23.390625-58.765625-54.859375-63.351563zm36.574219 81.636719h-128.003906v-18.285156c.03125-25.234375 20.480469-45.683594 45.714843-45.714844 5.050782 0 9.144532-4.09375 9.144532-9.140625v-23.316406c0-3.238281-1.714844-6.238281-4.507813-7.878907-8.5-4.851562-13.753906-13.878906-13.777343-23.664062v-18.285156c0-15.148438 12.277343-27.429688 27.425781-27.429688 15.148437 0 27.429687 12.28125 27.429687 27.429688v18.285156c-.023437 9.785156-5.28125 18.808594-13.777344 23.660156-2.792968 1.644532-4.507812 4.640625-4.507812 7.882813v23.3125c0 5.050781 4.09375 9.144531 9.140625 9.144531 25.238281.03125 45.6875 20.480469 45.714844 45.714844v18.285156zm0 0"/><path d="m415.597656 230.628906c19.128906 82.429688-17.835937 167.683594-91.082031 210.058594l9.144531 15.84375c80.21875-46.398438 120.691406-139.769531 99.710938-230.035156zm0 0"/><path d="m228.570312 82.285156c30.382813-.089844 60.34375 7.09375 87.378907 20.945313l8.320312-16.28125c-60.117187-30.585938-131.234375-30.585938-191.351562 0l8.320312 16.28125c27.023438-13.84375 56.96875-21.027344 87.332031-20.945313zm0 0"/><path d="m36.570312 274.285156c0-14.65625 1.664063-29.265625 4.957032-43.546875l-17.820313-4.125c-20.875 90.230469 19.617188 183.511719 99.785157 229.878907l9.144531-15.84375c-59.355469-34.398438-95.945313-97.761719-96.066407-166.363282zm0 0"/></g></svg>