<svg height="59pt" viewBox="-3 1 59 59.975042" width="59pt" xmlns="http://www.w3.org/2000/svg"><path d="m50.578125 50.625c-.914063.914062-1.878906 1.777344-2.890625 2.582031-1.105469.878907-2.285156 1.65625-3.523438 2.332031-3.691406 1.988282-7.769531 3.152344-11.953124 3.410157-7.734376.433593-15.328126-2.183594-21.148438-7.292969-12.015625-10.613281-12.847656-29.640625-1.992188-41.367188 4.644532-4.972656 10.878907-8.167968 17.628907-9.035156 1.214843-.167968 2.441406-.25 3.671875-.25.453125.007813.84375.316406.953125.757813.109375.4375-.089844.894531-.484375 1.113281-8.339844 4.394531-13.539063 13.066406-13.484375 22.492188.210937 11.046874 7.589843 20.667968 18.207031 23.738281 4.59375 1.296875 9.46875 1.246093 14.035156-.148438.4375-.128906.90625.058594 1.136719.453125.234375.394532.167969.894532-.15625 1.214844zm0 0" fill="#a4c2f7"/><path d="m47.6875 53.207031c-1.105469.878907-2.285156 1.65625-3.523438 2.332031-3.691406 1.988282-7.769531 3.152344-11.953124 3.410157-7.734376.433593-15.328126-2.183594-21.148438-7.292969-12.015625-10.613281-12.847656-29.640625-1.992188-41.367188 4.644532-4.972656 10.878907-8.167968 17.628907-9.035156-7.941407 5.425782-12.65625 14.445313-12.585938 24.0625.238281 12.679688 8.703125 23.730469 20.886719 27.261719 4.128906 1.164063 8.464844 1.378906 12.6875.628906zm0 0" fill="#cad9fc"/><path d="m45.875 15.980469c0-3.867188-2.6875-7-6-7-3.316406 0-6.003906 3.132812-6.003906 7 0 3.867187 2.6875 7.003906 6.003906 7.003906 3.3125 0 6-3.136719 6-7.003906zm0 0" fill="#e8edfc"/><path d="m53.308594 27.488281c0-3.039062-2.113282-5.503906-4.71875-5.503906-2.601563 0-4.714844 2.464844-4.714844 5.503906 0 3.035157 2.113281 5.5 4.714844 5.5 2.605468 0 4.71875-2.464843 4.71875-5.5zm0 0" fill="#cad9fc"/><path d="m14.0625 51.65625c-12.015625-10.613281-12.84375-29.640625-1.992188-41.367188 4.644532-4.972656 10.878907-8.167968 17.628907-9.035156.382812-.050781.765625-.082031 1.144531-.117187-.140625-.085938-.304688-.132813-.472656-.132813-1.230469 0-2.457032.082032-3.671875.25-6.75.867188-12.984375 4.0625-17.628907 9.035156-10.855468 11.726563-10.023437 30.753907 1.992188 41.367188 5.773438 5.0625 13.289062 7.683594 20.960938 7.300781-6.636719-.347656-12.964844-2.921875-17.960938-7.300781zm0 0" fill="#fff"/><path d="m49.597656 48.957031c-1.917968.570313-3.894531.917969-5.890625 1.027344 2.359375.152344 4.730469-.035156 7.039063-.550781-.214844-.417969-.699219-.621094-1.148438-.476563zm0 0" fill="#fff"/><path d="m9.808594 10.964844c-2.835938 3.101562-4.929688 6.800781-6.121094 10.828125-.386719 1.273437-.683594 2.570312-.894531 3.882812-.101563.65625-.136719 1.324219-.210938 1.984375l-.089843.992188v.996094c-.078126 5.347656 1.359374 10.609374 4.140624 15.175781 1.414063 2.25 3.125 4.296875 5.09375 6.085937l-1.324218 1.496094c-2.117188-1.914062-3.957032-4.113281-5.46875-6.53125-2.984375-4.890625-4.523438-10.523438-4.441406-16.25l.003906-1.066406.09375-1.0625c.078125-.703125.117187-1.417969.226562-2.121094.222656-1.402344.542969-2.792969.953125-4.152344 1.28125-4.320312 3.527344-8.292968 6.570313-11.617187zm0 0" fill="#fff"/><g fill="#428dff"><path d="m6.042969 14.257812c.457031.296876 1.0625.179688 1.378906-.261718l.535156-.804688.617188-.742187 1.230469-1.484375-1.46875-1.359375-1.324219 1.59375-.660157.796875-.578124.863281c-.152344.21875-.210938.492187-.160157.753906.050781.265625.203125.496094.429688.644531zm0 0"/><path d="m10.402344 52.40625 1.324218-1.5c-1.96875-1.785156-3.679687-3.832031-5.09375-6.082031-2.78125-4.566407-4.21875-9.828125-4.140624-15.175781v-.996094l.089843-.992188c.074219-.660156.109375-1.328125.210938-1.984375.210937-1.3125.507812-2.609375.894531-3.882812l.273438-.925781c.160156-.511719-.105469-1.0625-.605469-1.257813-.25-.097656-.535157-.085937-.777344.03125-.246094.117187-.429687.332031-.511719.589844l-.296875.992187c-.410156 1.359375-.730469 2.75-.953125 4.152344-.109375.703125-.148437 1.414062-.226562 2.121094l-.097656 1.0625v1.066406c-.082032 5.726562 1.457031 11.359375 4.4375 16.25 1.515624 2.417969 3.355468 4.617188 5.472656 6.53125zm0 0"/><path d="m5.453125 17.3125c.117187-.230469.140625-.496094.066406-.742188l-.078125-.175781c-.03125-.058593-.070312-.113281-.117187-.164062-.035157-.050781-.082031-.097657-.128907-.136719-.054687-.042969-.109374-.078125-.167968-.113281-.234375-.125-.507813-.152344-.761719-.078125-.128906.042968-.246094.113281-.347656.203125-.3125.265625-.441407.6875-.332031 1.082031.042968.125.117187.242188.210937.335938.089844.097656.195313.175781.316406.234374.238281.101563.507813.117188.757813.035157.246094-.082031.453125-.253907.582031-.480469zm0 0"/><path d="m30.484375 60c-7.394531-.015625-14.53125-2.710938-20.082031-7.59375-.277344-.234375-.40625-.601562-.335938-.953125.070313-.359375.324219-.648437.667969-.761719.347656-.113281.726563-.027344.992187.21875 5.617188 4.9375 12.953126 7.464844 20.421876 7.039063 4.039062-.253907 7.976562-1.378907 11.539062-3.296875 2.28125-1.269532 4.367188-2.867188 6.1875-4.738282-7.820312 2.378907-16.300781.9375-22.894531-3.890624-6.59375-4.828126-10.527344-12.476563-10.621094-20.648438-.027344-9.789062 5.367187-18.789062 14.011719-23.378906-7.800782.019531-15.246094 3.265625-20.566406 8.96875-.238282.273437-.609376.398437-.964844.320312-.355469-.078125-.640625-.339844-.746094-.691406-.105469-.347656-.011719-.726562.242188-.984375 5.699218-6.113281 13.671874-9.59375 22.027343-9.609375h.007813c.917968-.0078125 1.714844.625 1.925781 1.519531.238281.886719-.175781 1.820313-.988281 2.242188-7.988282 4.238281-12.972656 12.546875-12.949219 21.585937.085937 7.546875 3.722656 14.609375 9.8125 19.066406 6.089844 4.453126 13.917969 5.78125 21.136719 3.582032.878906-.261719 1.820312.109375 2.285156.898437.464844.785157.339844 1.789063-.308594 2.4375-1.957031 2.007813-4.195312 3.71875-6.648437 5.082031-3.820313 2.054688-8.039063 3.257813-12.367188 3.53125-.59375.035157-1.191406.054688-1.785156.054688zm0 0"/><path d="m39.875 23.984375c-.554688 0-1.003906-.449219-1.003906-1 0-3.308594-2.242188-6.003906-5-6.003906-.550782 0-1-.445313-1-1 0-.550781.449218-1 1-1 2.757812 0 5-2.691407 5-6 0-.554688.449218-1.003907 1.003906-1.003907.550781 0 1 .449219 1 1.003907 0 3.308593 2.242188 6 5 6 .554688 0 1 .449219 1 1 0 .554687-.445312 1-1 1-2.757812 0-5 2.695312-5 6.003906 0 .550781-.449219 1-1 1zm-2.617188-8.003906c1.109376.71875 2.007813 1.714843 2.617188 2.886719.605469-1.171876 1.507812-2.167969 2.613281-2.886719-1.105469-.714844-2.007812-1.710938-2.613281-2.882813-.609375 1.171875-1.507812 2.164063-2.617188 2.882813zm0 0"/><path d="m48.589844 33.988281c-.550782 0-1-.445312-1-1 0-2.480469-1.664063-4.5-3.714844-4.5-.550781 0-1-.449219-1-1 0-.554687.449219-1.003906 1-1.003906 2.050781 0 3.714844-2.019531 3.714844-4.5 0-.550781.449218-1 1-1 .554687 0 1 .449219 1 1 0 2.480469 1.667968 4.5 3.71875 4.5.550781 0 1 .449219 1 1.003906 0 .550781-.449219 1-1 1-2.050782 0-3.71875 2.019531-3.71875 4.5 0 .554688-.445313 1-1 1zm-1.671875-6.5c.675781.488281 1.246093 1.113281 1.671875 1.828125.429687-.714844 1-1.339844 1.671875-1.828125-.671875-.492187-1.242188-1.117187-1.671875-1.832031-.425782.714844-.996094 1.339844-1.671875 1.832031zm0 0"/></g></svg>