<svg height="490pt" viewBox="-5 0 490 490.81107" width="490pt" xmlns="http://www.w3.org/2000/svg"><path d="m8.40625 90.882812c-.015625 2.734376.472656 5.445313 1.441406 8h117.117188c.96875-2.554687 1.457031-5.265624 1.441406-8 0-13.253906-10.746094-24-24-24 0-17.671874-14.328125-32-32-32s-32 14.328126-32 32c0 .480469.160156 1.039063.160156 1.519532-2.605468-.992188-5.371094-1.507813-8.160156-1.519532-13.253906 0-24 10.746094-24 24zm0 0" fill="#bddbff"/><path d="m360.40625 114.882812c-8.886719.03125-17.5 3.050782-24.464844 8.570313-3.714844-31.335937-29.714844-55.28125-61.246094-56.417969-31.53125-1.140625-59.1875 20.875-65.152343 51.855469-5.339844-2.605469-11.195313-3.972656-17.136719-4.007813-22.089844 0-40 17.910157-40 40h248c0-22.089843-17.910156-40-40-40zm0 0" fill="#bddbff"/><path d="m256.40625 346.882812c.082031-15.289062-8.605469-29.277343-22.351562-35.976562-13.746094-6.703125-30.113282-4.9375-42.113282 4.546875-3.714844-31.335937-29.714844-55.28125-61.246094-56.417969-31.53125-1.140625-59.1875 20.875-65.152343 51.855469-5.339844-2.605469-11.195313-3.972656-17.136719-4.007813-22.089844 0-40 17.910157-40 40zm0 0" fill="#bddbff"/><g fill="#3d9ae2"><path d="m9.847656 106.882812h117.117188c3.304687.003907 6.273437-2.027343 7.464844-5.109374 1.328124-3.476563 2-7.167969 1.976562-10.890626-.019531-14.832031-10.210938-27.71875-24.640625-31.152343-3.414063-18.875-19.746094-32.671875-38.929687-32.878907-19.179688-.207031-35.808594 13.234376-39.628907 32.03125h-.800781c-17.671875 0-32 14.328126-32 32-.023438 3.722657.648438 7.414063 1.976562 10.890626 1.191407 3.082031 4.15625 5.113281 7.464844 5.109374zm27.894532-30.992187c2.457031.929687 5.214843.589844 7.375-.90625 2.160156-1.492187 3.449218-3.953125 3.449218-6.582031.011719-.511719-.042968-1.019532-.160156-1.519532 0-13.253906 10.746094-24 24-24s24 10.746094 24 24c0 4.417969 3.582031 8 8 8 8.835938 0 16 7.164063 16 16h-104c-.023438-5.199218 2.5-10.078124 6.753906-13.066406 4.253906-2.988281 9.699219-3.707031 14.582032-1.925781zm0 0"/><path d="m283.484375.171875c-3.679687-.773437-7.40625 1.121094-8.945313 4.554687-1.539062 3.429688-.480468 7.472657 2.546876 9.707032 32.5 23.960937 57.925781 56.25 73.601562 93.457031-3.148438.664063-6.222656 1.652344-9.167969 2.945313-8.804687-30.300782-36.308593-51.335938-67.855469-51.898438-31.546874-.566406-59.785156 19.476562-69.664062 49.441406-3.785156-.992187-7.683594-1.492187-11.59375-1.496094-26.5.027344-47.972656 21.503907-48 48 0 4.417969 3.582031 8 8 8h213.535156c1.574219 10.597657 2.398438 21.289063 2.464844 32-.140625 123.652344-100.347656 223.859376-224 224-27.242188.046876-54.257812-4.925781-79.695312-14.671874-3.511719-1.324219-7.46875-.035157-9.523438 3.105468-2.054688 3.136719-1.648438 7.28125.96875 9.96875 70.722656 71.4375 177.570312 93.121094 270.542969 54.902344 92.972656-38.21875 153.675781-128.78125 153.707031-229.304688-.359375-117.15625-82.351562-218.214843-196.921875-242.710937zm-91.078125 122.710937c4.753906.027344 9.445312 1.121094 13.71875 3.199219 2.238281 1.070313 4.847656 1.039063 7.058594-.082031 2.214844-1.117188 3.78125-3.199219 4.246094-5.636719 5.277343-27.050781 29.449218-46.242187 56.988281-45.242187 27.542969.996094 50.265625 21.882812 53.570312 49.242187.335938 2.871094 2.191407 5.339844 4.859375 6.453125 2.667969 1.117188 5.726563.707032 8.007813-1.070312 5.558593-4.417969 12.449219-6.835938 19.550781-6.863282 14.585938.015626 27.324219 9.878907 30.984375 24h-229.96875c3.660156-14.121093 16.398437-23.984374 30.984375-24zm40 352c-49.515625.148438-97.753906-15.683593-137.550781-45.144531 70.785156 14.890625 144.511719-2.921875 200.691406-48.488281s88.824219-114.03125 88.859375-186.367188c-.078125-10.707031-.863281-21.394531-2.351562-32h18.351562c4.417969 0 8-3.582031 8-8-.03125-23.59375-17.203125-43.671874-40.511719-47.351562-11.898437-30.507812-29.933593-58.25-52.992187-81.503906 104.664062 39.792968 165.972656 148.664062 145.730468 258.792968-20.238281 110.128907-116.253906 190.085938-228.226562 190.0625zm0 0"/><path d="m112.40625 226.882812h16c0-2.957031 1.628906-5.671874 4.238281-7.0625 2.609375-1.386718 5.773438-1.226562 8.226563.421876 2.054687 1.378906 4.632812 1.726562 6.980468.941406 2.347657-.78125 4.199219-2.605469 5.019532-4.941406 1.300781-3.65625 5.046875-5.851563 8.875-5.199219 3.828125.648437 6.636718 3.957031 6.660156 7.839843h16c.023438-10.109374-6.300781-19.144531-15.804688-22.582031-9.507812-3.4375-20.148437-.539062-26.59375 7.246094-7.148437-1.714844-14.6875-.058594-20.460937 4.492187-5.773437 4.550782-9.140625 11.496094-9.140625 18.84375zm0 0"/><path d="m264.40625 346.882812c-.027344-26.496093-21.5-47.972656-48-48-6.492188-.003906-12.914062 1.34375-18.855469 3.953126-8.804687-30.300782-36.308593-51.335938-67.855469-51.898438-31.546874-.566406-59.785156 19.476562-69.664062 49.441406-3.796875-.992187-7.703125-1.496094-11.625-1.496094-26.5.027344-47.972656 21.503907-48 48 0 4.417969 3.582031 8 8 8h248c4.417969 0 8-3.582031 8-8zm-246.984375-8c2.324219-9.285156 8.714844-17.023437 17.390625-21.0625 8.679688-4.035156 18.714844-3.941406 27.3125.261719 2.238281 1.070313 4.847656 1.039063 7.058594-.082031 2.214844-1.117188 3.78125-3.199219 4.246094-5.636719 5.277343-27.050781 29.449218-46.242187 56.988281-45.242187 27.542969.996094 50.265625 21.882812 53.570312 49.242187.335938 2.871094 2.191407 5.339844 4.859375 6.453125 2.667969 1.117188 5.726563.707032 8.007813-1.070312 5.558593-4.417969 12.449219-6.835938 19.550781-6.863282 14.585938.015626 27.324219 9.878907 30.984375 24zm0 0"/></g></svg>