<?xml version="1.0" encoding="iso-8859-1"?>
<!-- Generator: Adobe Illustrator 19.0.0, SVG Export Plug-In . SVG Version: 6.00 Build 0)  -->
<svg version="1.1" id="Capa_1" xmlns="http://www.w3.org/2000/svg" xmlns:xlink="http://www.w3.org/1999/xlink" x="0px" y="0px"
	 viewBox="0 0 512 512" style="enable-background:new 0 0 512 512;" xml:space="preserve">
<path style="fill:#4BB9FF;" d="M512,66v380c0,8.28-6.72,15-15,15H15c-8.28,0-15-6.72-15-15V66c0-8.28,6.72-15,15-15h482
	C505.28,51,512,57.72,512,66z"/>
<path style="fill:#3E98EF;" d="M497,51H256v410h241c8.28,0,15-6.72,15-15V66C512,57.72,505.28,51,497,51z"/>
<path style="fill:#2FD6F0;" d="M215,300v161H15c-8.28,0-15-6.72-15-15V285h200C208.28,285,215,291.72,215,300z"/>
<path style="fill:#92ECF6;" d="M512,438.73V446c0,8.28-6.72,15-15,15H15c-8.28,0-15-6.72-15-15v-7.27L194.98,285l51.73-40.78
	c5.45-4.29,13.13-4.29,18.58,0L512,438.73z"/>
<path style="fill:#2FD6F0;" d="M265.29,244.22c-2.725-2.145-6.008-3.218-9.29-3.218V461h241c8.28,0,15-6.72,15-15v-7.27
	L265.29,244.22z"/>
<path style="fill:#FFDD3E;" d="M387,111c-35.841,0-65,29.159-65,65s29.159,65,65,65s65-29.159,65-65S422.841,111,387,111z"/>
<g>
</g>
<g>
</g>
<g>
</g>
<g>
</g>
<g>
</g>
<g>
</g>
<g>
</g>
<g>
</g>
<g>
</g>
<g>
</g>
<g>
</g>
<g>
</g>
<g>
</g>
<g>
</g>
<g>
</g>
</svg>
