<svg width="42" height="42" viewBox="0 0 42 42" fill="none" xmlns="http://www.w3.org/2000/svg">
<g clip-path="url(#clip0)">
<path d="M36.6915 21C36.6915 20.382 36.6553 19.7726 36.5856 19.1734C36.4958 18.4029 36.8011 17.6389 37.3842 17.1274L39.7848 15.0213C40.5996 14.3064 40.7827 13.1094 40.2189 12.1837L37.6514 7.96847C37.0876 7.04274 35.9399 6.65626 34.931 7.0523L31.9385 8.22681C31.2142 8.5111 30.4001 8.41153 29.7549 7.97679C29.0616 7.50977 28.329 7.09668 27.5631 6.74347C26.8584 6.41843 26.3523 5.7755 26.2187 5.01101L25.6655 1.84685C25.4788 0.779059 24.5517 0 23.4678 0H18.5322C17.4483 0 16.5213 0.779059 16.3347 1.84677L15.7815 5.01093C15.6478 5.77541 15.1418 6.41843 14.437 6.74339C13.6711 7.0966 12.9385 7.50968 12.2453 7.97671C11.5999 8.41137 10.7859 8.51093 10.0617 8.22673L7.06904 7.05221C6.06005 6.65626 4.91246 7.04274 4.34867 7.96839L1.78124 12.1836C1.21745 13.1094 1.40052 14.3064 2.21532 15.0212L4.61591 17.1273C5.19905 17.6389 5.50433 18.4028 5.41457 19.1733C5.34473 19.7725 5.30866 20.382 5.30866 20.9999C5.30866 21.6178 5.34482 22.2273 5.41457 22.8265C5.50433 23.597 5.19905 24.361 4.61591 24.8726L2.21532 26.9787C1.40052 27.6935 1.21745 28.8905 1.78124 29.8162L4.34867 34.0315C4.91246 34.9572 6.06013 35.3437 7.06904 34.9476L10.0616 33.7731C10.7859 33.4888 11.5999 33.5885 12.2452 34.0231C12.9384 34.4902 13.671 34.9032 14.4369 35.2565C15.1417 35.5815 15.6477 36.2244 15.7814 36.9889L16.3346 40.1531C16.5213 41.221 17.4483 41.6706 18.5322 41.6706H23.4678C24.5517 41.6706 25.4788 41.221 25.6654 40.1532L26.2186 36.9891C26.3522 36.2246 26.8583 35.5816 27.5631 35.2566C28.3289 34.9034 29.0616 34.4903 29.7548 34.0233C30.4001 33.5886 31.2142 33.4891 31.9384 33.7733L34.9309 34.9478C35.9399 35.3438 37.0875 34.9573 37.6513 34.0316L40.2187 29.8164C40.7825 28.8907 40.5995 27.6937 39.7847 26.9788L37.3841 24.8727C36.8009 24.3612 36.4956 23.5972 36.5854 22.8267C36.6554 22.2274 36.6915 21.618 36.6915 21V21Z" fill="url(#paint0_linear)"/>
<path d="M20.9999 33.8266C28.0838 33.8266 33.8265 28.0839 33.8265 21C33.8265 13.9161 28.0838 8.17346 20.9999 8.17346C13.916 8.17346 8.17334 13.9161 8.17334 21C8.17334 28.0839 13.916 33.8266 20.9999 33.8266Z" fill="url(#paint1_linear)"/>
<path d="M23.4681 42C24.552 42 25.479 41.221 25.6657 40.1533L26.2188 36.9891C26.3525 36.2246 26.8585 35.5816 27.5633 35.2566C28.3292 34.9034 29.0618 34.4904 29.7551 34.0233C30.4004 33.5887 31.2144 33.4891 31.9386 33.7733L34.9312 34.9478C35.9402 35.3439 37.0878 34.9573 37.6516 34.0316L40.219 29.8164C40.7828 28.8907 40.5997 27.6937 39.7849 26.9789L37.3843 24.8728C36.8012 24.3612 36.4959 23.5972 36.5857 22.8267C36.6275 22.4675 36.6557 22.1041 36.6728 21.7379L28.7671 13.8322C28.2752 13.2995 27.7293 12.8174 27.138 12.3949C26.6604 12.0537 25.9965 12.3993 25.9965 12.9863V19.9626C25.9965 20.6835 25.6688 21.357 25.1198 21.8038C25.0163 21.7043 15.9155 12.6193 15.8396 12.5276C15.612 12.2523 15.1896 12.3256 14.8567 12.5637C12.172 14.4844 10.5894 17.4659 10.5957 21.0195C10.6012 24.079 11.7372 26.8285 13.8135 28.7534L16.0864 31.0344L16.1688 36.3417C16.1688 37.6195 16.1147 38.8948 16.3347 40.1535C16.5215 41.221 17.4486 42 18.5325 42H23.4681Z" fill="url(#paint2_linear)"/>
<path d="M40.2185 29.8159L37.6515 34.0315C37.0874 34.9572 35.9394 35.3434 34.9306 34.9481L31.9379 33.773C31.214 33.4888 30.3995 33.5885 29.7547 34.0233C29.0613 34.4903 28.3283 34.9037 27.5625 35.257C26.8583 35.5814 26.3519 36.2246 26.2185 36.9888L25.6651 40.1537C25.4781 41.221 24.5516 41.753 23.4679 41.753H18.5316C17.9898 41.753 17.4874 41.5586 17.0971 41.23C16.8978 41.0628 16.7281 41.1081 16.5972 40.88C16.9258 41.0694 17.3062 41.1765 17.7081 41.1765H22.6443C23.7281 41.1765 24.6546 40.3974 24.8415 39.3301C24.9511 38.701 25.0342 38.0668 25.0894 37.4311C25.1446 36.7953 25.1726 36.1563 25.1726 35.518V29.4923C28.4898 27.7093 30.7454 24.206 30.7454 20.1765C30.7454 17.4712 29.7292 15.0031 28.0566 13.1337C28.3045 13.3544 28.5408 13.5874 28.7665 13.832L36.6723 21.7379C36.6551 22.1044 36.6271 22.4675 36.5851 22.8266C36.4953 23.5974 36.8008 24.3608 37.3839 24.8731L39.7845 26.9788C40.5989 27.6937 40.7826 28.8903 40.2185 29.8159V29.8159Z" fill="url(#paint3_linear)"/>
<path d="M25.6654 40.1532C25.8854 38.8946 25.996 37.6192 25.996 36.3414V27.6157H16.0039V36.3414C16.0039 37.6192 16.1145 38.8946 16.3346 40.1532C16.5212 41.2209 17.4483 42 18.5322 42H23.4678C24.5517 42 25.4788 41.2209 25.6654 40.1532Z" fill="url(#paint4_linear)"/>
<path d="M16.0039 30.3189L25.6897 40.0047C25.8929 38.7943 25.996 37.569 25.996 36.3415V27.6157H16.0039V30.3189Z" fill="url(#paint5_linear)"/>
<path d="M31.5695 21C31.5695 26.8372 26.8376 31.5691 21.0004 31.5692C15.1633 31.5693 10.4415 26.8565 10.4312 21.0193C10.4248 17.4657 12.1722 14.3195 14.8569 12.3987C15.3367 12.0555 16.0039 12.3964 16.0039 12.9863V19.9625C16.0039 20.8109 16.4565 21.5949 17.1913 22.0191L19.8128 23.5328C20.5477 23.9571 21.453 23.9571 22.1878 23.5328L24.8093 22.0191C25.5441 21.5949 25.9967 20.8109 25.9967 19.9625V12.9861C25.9967 12.3992 26.6606 12.0536 27.1382 12.3947C29.8213 14.3116 31.5695 17.4518 31.5695 21V21Z" fill="url(#paint6_linear)"/>
<path d="M13.1783 21.8902C13.1783 23.2184 13.8869 24.4457 15.0371 25.1098L19.141 27.4794C20.2913 28.1435 21.7086 28.1435 22.8589 27.4794L26.9628 25.1098C28.113 24.4457 28.8216 23.2184 28.8216 21.8902V13.8929C28.3154 13.3363 27.7514 12.8332 27.1378 12.3948C26.6602 12.0536 25.9963 12.3992 25.9963 12.9861V19.9625C25.9963 20.8109 25.5437 21.5949 24.8089 22.0192L22.1874 23.5328C21.4526 23.9571 20.5472 23.9571 19.8124 23.5328L17.1909 22.0192C16.4561 21.595 16.0035 20.811 16.0035 19.9625V12.9864C16.0035 12.3964 15.3363 12.0555 14.8565 12.3988C14.245 12.8363 13.6828 13.3379 13.1782 13.8928V21.8902H13.1783Z" fill="url(#paint7_linear)"/>
</g>
<defs>
<linearGradient id="paint0_linear" x1="10.4096" y1="10.4096" x2="32.5711" y2="32.5711" gradientUnits="userSpaceOnUse">
<stop stop-color="#7FAEF4"/>
<stop offset="1" stop-color="#4C8DF1"/>
</linearGradient>
<linearGradient id="paint1_linear" x1="35.4771" y1="35.4773" x2="5.3637" y2="5.36383" gradientUnits="userSpaceOnUse">
<stop stop-color="#7FAEF4"/>
<stop offset="1" stop-color="#4C8DF1"/>
</linearGradient>
<linearGradient id="paint2_linear" x1="22.8518" y1="27.3307" x2="8.3269" y2="20.1093" gradientUnits="userSpaceOnUse">
<stop stop-color="#4C8DF1" stop-opacity="0"/>
<stop offset="0.5631" stop-color="#466CC8" stop-opacity="0.563"/>
<stop offset="1" stop-color="#4256AC"/>
</linearGradient>
<linearGradient id="paint3_linear" x1="34.4808" y1="32.9614" x2="22.869" y2="27.3614" gradientUnits="userSpaceOnUse">
<stop stop-color="#4C8DF1" stop-opacity="0"/>
<stop offset="0.5631" stop-color="#466CC8" stop-opacity="0.563"/>
<stop offset="1" stop-color="#4256AC"/>
</linearGradient>
<linearGradient id="paint4_linear" x1="20.6324" y1="33.6382" x2="26.9349" y2="39.9408" gradientUnits="userSpaceOnUse">
<stop stop-color="#E3E5E4"/>
<stop offset="1" stop-color="#CBD0E4"/>
</linearGradient>
<linearGradient id="paint5_linear" x1="24.068" y1="35.9107" x2="19.8955" y2="26.4676" gradientUnits="userSpaceOnUse">
<stop stop-color="#CBD0E4" stop-opacity="0"/>
<stop offset="1" stop-color="#6A7D83"/>
</linearGradient>
<linearGradient id="paint6_linear" x1="17.1284" y1="17.1308" x2="30.9296" y2="30.932" gradientUnits="userSpaceOnUse">
<stop stop-color="#E3E5E4"/>
<stop offset="1" stop-color="#CBD0E4"/>
</linearGradient>
<linearGradient id="paint7_linear" x1="26.8675" y1="24.5207" x2="11.2203" y2="8.87335" gradientUnits="userSpaceOnUse">
<stop stop-color="#E3E5E4"/>
<stop offset="1" stop-color="#CBD0E4"/>
</linearGradient>
<clipPath id="clip0">
<rect width="42" height="42" fill="white"/>
</clipPath>
</defs>
</svg>
