<svg height="384pt" viewBox="0 0 384 384" width="384pt" xmlns="http://www.w3.org/2000/svg"><path d="m256 368c46.398438 0 59.199219-113.601562 62.640625-176h-126.640625c16 88 32 176 64 176zm0 0" fill="#cce4ff"/><path d="m128 16c-46.398438 0-59.199219 113.601562-62.640625 176h126.640625c-16-88-32-176-64-176zm0 0" fill="#cce4ff"/><g fill="#007aff"><path d="m336 152h-32c0 7.976562-.144531 15.992188-.398438 24h-98.273437c-20.105469-109.390625-35.816406-176-77.328125-176-56.503906 0-73.328125 102.855469-78.144531 176h-49.855469v32h48.351562c-.261718 9.375-.351562 17.566406-.351562 24h32c0-7.976562.144531-15.992188.398438-24h98.265624c20.113282 109.390625 35.824219 176 77.335938 176 56.503906 0 73.328125-102.855469 78.144531-176h49.855469v-32h-48.351562c.261718-9.375.351562-17.566406.351562-24zm-208-120c.097656 0 9.824219 1.183594 22.6875 43.640625 8.3125 27.414063 15.382812 63.695313 22.128906 100.359375h-90.710937c5.71875-76.710938 22.734375-144 45.894531-144zm128 320c-.097656 0-9.824219-1.183594-22.6875-43.640625-8.3125-27.414063-15.382812-63.695313-22.128906-100.359375h90.710937c-5.71875 76.710938-22.734375 144-45.894531 144zm0 0"/><path d="m314.34375 34.34375c2.039062-2.039062 4.417969-2.34375 5.65625-2.34375 1.136719 0 3.214844.257812 5.128906 1.855469l6.277344 8.015625 25.179688-19.75-7.035157-8.96875-1.269531-1.441406c-7.554688-7.542969-17.601562-11.710938-28.28125-11.710938s-20.726562 4.167969-28.28125 11.71875c-1.292969 1.296875-2.488281 2.65625-3.566406 4.082031-7.054688 9.261719-9.320313 21.175781-6.214844 32.679688 3.253906 12.039062 12.054688 22.070312 23.542969 26.832031l16.785156 6.953125c2.804687 1.167969 4.375 3.664063 4.902344 5.613281.511719 1.914063.257812 3.585938-.785157 4.945313-.214843.289062-.460937.566406-.734374.832031-2.03125 2.039062-4.410157 2.34375-5.648438 2.34375-1.136719 0-3.214844-.257812-5.128906-1.855469l-6.277344-8.015625-25.179688 19.75 7.035157 8.96875 1.269531 1.441406c7.554688 7.542969 17.601562 11.710938 28.28125 11.710938s20.726562-4.167969 28.28125-11.71875c1.292969-1.296875 2.488281-2.65625 3.566406-4.082031 7.054688-9.261719 9.320313-21.175781 6.214844-32.679688-3.253906-12.039062-12.054688-22.070312-23.542969-26.832031l-16.785156-6.953125c-2.804687-1.167969-4.375-3.664063-4.902344-5.613281-.511719-1.914063-.257812-3.585938.785157-4.945313.214843-.289062.460937-.566406.726562-.832031zm0 0"/><path d="m64 256c-22.054688 0-40 17.945312-40 40v48c0 22.054688 17.945312 40 40 40s40-17.945312 40-40v-8h-32v8c0 4.414062-3.59375 8-8 8s-8-3.585938-8-8v-48c0-4.414062 3.59375-8 8-8s8 3.585938 8 8v8h32v-8c0-22.054688-17.945312-40-40-40zm0 0"/></g></svg>