<svg height="512pt" viewBox="-6 0 512 512.00001" width="512pt" xmlns="http://www.w3.org/2000/svg"><path d="m499.628906 262.183594c0 137.96875-111.84375 249.816406-249.8125 249.816406s-249.816406-111.847656-249.816406-249.816406 111.847656-249.8125 249.816406-249.8125 249.8125 111.84375 249.8125 249.8125zm0 0" fill="#fdd33a"/><path d="m252.539062 192.765625h-125.9375c-57.472656 0-104.0625 46.589844-104.0625 104.0625 0 41.574219 24.382813 77.453125 59.625 94.121094 14.152344 6.695312 23.230469 20.890625 23.230469 36.546875v22.324218c0 8.488282 10.96875 11.871094 15.746094 4.859376l24.652344-36.15625c7.523437-11.03125 20.011719-17.632813 33.363281-17.632813h73.382812c57.472657 0 104.0625-46.589844 104.0625-104.0625-.003906-57.472656-46.59375-104.0625-104.0625-104.0625zm0 0" fill="#f8fafd"/><path d="m121.929688 390.949219c-35.242188-16.667969-59.625-52.546875-59.625-94.121094 0-57.472656 46.589843-104.0625 104.0625-104.0625h-39.765626c-57.472656 0-104.0625 46.589844-104.0625 104.0625 0 41.574219 24.378907 77.453125 59.621094 94.121094 14.15625 6.695312 23.230469 20.890625 23.230469 36.546875v22.324218c0 8.488282 10.96875 11.871094 15.75 4.859376l23.363281-34.269532c-2.28125-12.75-10.597656-23.796875-22.574218-29.460937zm0 0" fill="#ddd"/><path d="m138.339844 298.816406c0 10.609375-8.597656 19.210938-19.207032 19.210938-10.609374 0-19.210937-8.601563-19.210937-19.210938s8.601563-19.210937 19.210937-19.210937c10.609376 0 19.207032 8.601562 19.207032 19.210937zm0 0" fill="#7956ba"/><path d="m208.78125 298.816406c0 10.609375-8.601562 19.210938-19.210938 19.210938-10.609374 0-19.210937-8.601563-19.210937-19.210938s8.601563-19.210937 19.210937-19.210937c10.609376 0 19.210938 8.601562 19.210938 19.210937zm0 0" fill="#7956ba"/><path d="m279.21875 298.816406c0 10.609375-8.601562 19.210938-19.210938 19.210938-10.609374 0-19.210937-8.601563-19.210937-19.210938s8.601563-19.210937 19.210937-19.210937c10.609376 0 19.210938 8.601562 19.210938 19.210937zm0 0" fill="#7956ba"/><path d="m246.289062 0h125.933594c57.472656 0 104.0625 46.589844 104.0625 104.0625 0 41.574219-24.378906 77.449219-59.621094 94.121094-14.15625 6.695312-23.230468 20.890625-23.230468 36.546875v22.324219c0 8.484374-10.96875 11.871093-15.75 4.859374l-24.652344-36.160156c-7.519531-11.03125-20.007812-17.628906-33.363281-17.628906h-73.378907c-57.472656 0-104.0625-46.589844-104.0625-104.0625s46.589844-104.0625 104.0625-104.0625zm0 0" fill="#f84e82"/><path d="m362.496094 194.871094h-73.382813c-57.472656 0-104.0625-46.59375-104.0625-104.0625 0-37.886719 20.25-71.042969 50.515625-89.242188-52.433594 5.367188-93.339844 49.664063-93.339844 103.515625 0 57.472657 46.589844 104.0625 104.0625 104.0625h73.382813c13.351563 0 25.839844 6.601563 33.359375 17.632813l24.652344 36.15625c4.78125 7.011718 15.75 3.628906 15.75-4.859375v-22.324219c0-6.945312 1.792968-13.601562 5.019531-19.445312l-2.597656-3.800782c-7.519531-11.035156-20.007813-17.632812-33.359375-17.632812zm0 0" fill="#dd3a71"/><g fill="#f8fafd"><path d="m398.90625 106.050781c0 10.609375-8.601562 19.210938-19.210938 19.210938-10.609374 0-19.210937-8.601563-19.210937-19.210938s8.601563-19.210937 19.210937-19.210937c10.609376 0 19.210938 8.601562 19.210938 19.210937zm0 0"/><path d="m328.464844 106.050781c0 10.609375-8.597656 19.210938-19.207032 19.210938-10.609374 0-19.210937-8.601563-19.210937-19.210938s8.601563-19.210937 19.210937-19.210937c10.609376 0 19.207032 8.601562 19.207032 19.210937zm0 0"/><path d="m258.027344 106.050781c0 10.609375-8.601563 19.210938-19.210938 19.210938s-19.210937-8.601563-19.210937-19.210938 8.601562-19.210937 19.210937-19.210937 19.210938 8.601562 19.210938 19.210937zm0 0"/></g></svg>