<svg id="Capa_1" enable-background="new 0 0 512 512" height="512" viewBox="0 0 512 512" width="512" xmlns="http://www.w3.org/2000/svg"><path d="m307.509 408.703h-103.018v-261.972c0-13.659 11.073-24.731 24.731-24.731h53.555c13.659 0 24.731 11.073 24.731 24.731v261.972z" fill="#ffca28"/><path d="m282.785 122h-30.905c13.655 0 24.724 11.076 24.724 24.738v261.965h30.905v-261.965c0-13.662-11.069-24.738-24.724-24.738z" fill="#ffb300"/><path d="m175.646 408.703h-103.018v-192.91c0-13.659 11.073-24.731 24.731-24.731h53.555c13.659 0 24.731 11.073 24.731 24.731v192.91z" fill="#ff3d7a"/><path d="m150.922 191.062h-30.905c13.655 0 24.724 11.076 24.724 24.738v192.903h30.905v-192.903c0-13.663-11.07-24.738-24.724-24.738z" fill="#eb3870"/><path d="m439.372 408.703h-103.018v-328.972c0-13.659 11.073-24.731 24.731-24.731h53.555c13.659 0 24.731 11.073 24.731 24.731v328.972z" fill="#80deea"/><path d="m414.648 55h-30.905c13.655 0 24.724 11.076 24.724 24.738v328.965h30.905v-328.965c0-13.662-11.069-24.738-24.724-24.738z" fill="#4dd0e1"/><path d="m481.086 457h-450.172c-17.073 0-30.914-13.841-30.914-30.914v-.018c0-17.073 13.841-30.914 30.914-30.914h450.172c17.073 0 30.914 13.841 30.914 30.914v.018c0 17.073-13.841 30.914-30.914 30.914z" fill="#8c9eff"/><path d="m481.095 395.154h-30.905c17.069 0 30.905 13.845 30.905 30.923 0 17.078-13.837 30.923-30.905 30.923h30.905c17.068 0 30.905-13.845 30.905-30.923 0-17.078-13.837-30.923-30.905-30.923z" fill="#7488ed"/></svg>