<svg width="45" height="42" viewBox="0 0 45 42" fill="none" xmlns="http://www.w3.org/2000/svg">
<g clip-path="url(#clip0)">
<path d="M44.0152 22.8383C44.0152 23.2509 44.0016 23.6611 43.975 24.0688C43.6698 28.7249 41.6336 33.0602 38.1643 36.3882C34.6958 39.7154 30.1763 41.6686 25.3225 41.9614C24.8975 41.9869 24.4699 42 24.0397 42C14.9858 42 7.48913 36.2587 4.9784 28.5854C4.85611 28.2122 4.92624 27.8045 5.16824 27.4887C5.4094 27.1728 5.79336 26.9866 6.20212 26.9866H13.7882C14.2568 26.9866 14.6878 27.2319 14.9136 27.6257C16.741 30.8265 20.2377 32.8149 24.0397 32.8149C24.4742 32.8149 24.9017 32.7895 25.3225 32.7387C30.0335 32.1808 33.7791 28.5879 34.3606 24.0688C34.4136 23.6652 34.4401 23.255 34.4401 22.8383C34.4401 19.192 32.3672 15.8369 29.0304 14.0839C28.6199 13.8674 28.3642 13.4539 28.3642 13.0044V5.72741C28.3642 5.3353 28.5584 4.96698 28.8876 4.73565C29.2168 4.5035 29.6418 4.43624 30.0309 4.55354C38.0226 6.95977 44.0152 14.1459 44.0152 22.8383Z" fill="#FAD557"/>
<path d="M43.9751 24.0688C44.0016 23.6611 44.0152 23.2509 44.0152 22.8383C44.0152 14.1459 38.0226 6.95977 30.0309 4.55354C29.6419 4.43624 29.2168 4.5035 28.8876 4.73565C28.5584 4.96698 28.3643 5.3353 28.3643 5.72741V13.0044C28.3643 13.4539 28.6199 13.8674 29.0304 14.0839C32.3672 15.8369 34.4401 19.192 34.4401 22.8383C34.4401 23.255 34.4136 23.6652 34.3606 24.0688C34.0698 26.3283 32.9881 28.3564 31.3901 29.8892L38.1647 36.3878C41.6338 33.0599 43.6698 28.7247 43.9751 24.0688Z" fill="#FCB12B"/>
<path d="M24.0394 0C17.6801 0 11.7014 2.37554 7.20461 6.68916C2.70788 11.0027 0.231445 16.7378 0.231445 22.838C0.231445 23.5175 0.805765 24.0685 1.51417 24.0685H24.0394C24.7478 24.0685 25.3221 23.5175 25.3221 22.838V1.23047C25.3221 0.550922 24.7478 0 24.0394 0Z" fill="#7FECA0"/>
<path d="M25.3225 32.7387V41.9614C24.8974 41.9869 24.4699 42 24.0397 42C14.9858 42 7.48912 36.2587 4.9784 28.5854C4.85611 28.2122 4.92624 27.8045 5.16824 27.4887C5.4094 27.1728 5.79336 26.9866 6.20212 26.9866H13.7882C14.2568 26.9866 14.6878 27.2319 14.9136 27.6257C16.741 30.8265 20.2377 32.815 24.0397 32.815C24.4741 32.815 24.9017 32.7895 25.3225 32.7387Z" fill="#72A3FC"/>
<path d="M25.322 1.23047C25.322 0.550922 24.7477 0 24.0393 0C17.68 0 11.7013 2.37554 7.20459 6.68916L24.9463 23.7081C25.1784 23.4855 25.322 23.1778 25.322 22.8381V1.23047V1.23047Z" fill="#3AD475"/>
<path d="M29.0304 14.0839C32.3672 15.8369 34.4401 19.192 34.4401 22.8383C34.4401 23.255 34.4136 23.6652 34.3606 24.0688H43.9751C44.0016 23.6611 44.0152 23.2509 44.0152 22.8383C44.0152 14.1459 38.0226 6.95977 30.0309 4.55354C29.6419 4.43624 29.2168 4.5035 28.8876 4.73565C28.5584 4.96698 28.3643 5.3353 28.3643 5.72741V13.0044C28.3643 13.4539 28.6199 13.8674 29.0304 14.0839Z" fill="#FC495C"/>
</g>
<defs>
<clipPath id="clip0">
<rect width="43.7838" height="42" fill="white" transform="translate(0.231445)"/>
</clipPath>
</defs>
</svg>
