<?xml version="1.0" encoding="UTF-8"?>
<svg xmlns="http://www.w3.org/2000/svg" xmlns:xlink="http://www.w3.org/1999/xlink" width="512" height="512" viewBox="0 0 60 61" version="1.1"><!-- Generator: Sketch 51.3 (57544) - http://www.bohemiancoding.com/sketch --><title>001 - Thinking</title><desc>Created with Sketch.</desc><defs/><g id="Page-1" stroke="none" stroke-width="1" fill="none" fill-rule="evenodd"><g id="001---Thinking" transform="translate(-1.000000, -1.000000)" fill-rule="nonzero"><path d="M47.26,38.71 C45.9803538,41.6319437 45.5006323,44.8415908 45.87,48.01 C46.0951005,50.0721875 46.5033794,52.1102353 47.09,54.1 C47.4048963,55.1305317 47.802868,56.1338218 48.28,57.1 C48.8718004,58.0090608 49.4061765,58.9542385 49.88,59.93 L24.78,60 L24.78,59.99 C24.7,59.69 23.19,53.81 19.85,52.3 C19.23,52.52 18.57,52.74 17.9,52.97 C15.6789002,53.7404523 13.4191713,54.3946722 11.13,54.93 C10.4993821,55.0806865 9.83512584,54.9878335 9.27,54.67 C8.62676625,54.2742562 8.14753634,53.660132 7.92,52.94 C7.65806229,52.2276891 7.56229323,51.4649569 7.64,50.71 C7.87036773,49.9391054 7.94848689,49.1307419 7.87,48.33 C7.61,47.32 6.65,47.07 5.88,46.53 C5.27,46.09 6.38,44.68 6.38,44.68 C6.38,44.68 5.2,43.81 4.78,43.43 C4.34,43.07 4.96,42.45 5.51,41.28 C5.73694079,40.7719796 5.80323378,40.2067446 5.7,39.66 C5.49,38.59 3.86,38.18 3.07,37.59 C2.69,37.31 2.08,36.89 2.01,36.38 C1.9,35.67 2.74,34.67 3.15,34.17 C4.89454657,31.9217816 6.38996718,29.4908848 7.61,26.92 C7.77010631,26.6486227 7.86589137,26.3441631 7.89,26.03 C7.87,24.6 5.8,24.01 5.61,22.62 C5.58022555,22.2120559 5.65239212,21.803112 5.82,21.43 C6.39667192,20.2042401 6.89109856,18.9414478 7.3,17.65 C7.54612792,16.4653226 7.86336869,15.2965408 8.25,14.15 C9.08859812,11.8496676 10.3808376,9.74127689 12.05,7.95 C14.5,5.36 18.12,4.08 21.54,3.4 C24.5813721,2.73504394 27.6655865,2.28393999 30.77,2.05 C30.87,2.04 30.97,2.04 31.07,2.03 C37.47,1.71 42.53,3.88 47.49,7.76 C50.1927291,9.77631392 52.1683037,12.6151058 53.12,15.85 C53.8451888,18.5213389 54.1852867,21.2825294 54.13,24.05 C54.110834,26.7831121 53.3129958,29.4541358 51.83,31.75 C50.34,34.1 48.38,36.14 47.26,38.71 Z" id="Shape" fill="#A4C2F7"/><path d="M44.26,38.71 C42.9803538,41.6319437 42.5006323,44.8415908 42.87,48.01 C43.0951005,50.0721875 43.5033794,52.1102353 44.09,54.1 C44.4048963,55.1305317 44.802868,56.1338218 45.28,57.1 C45.8718004,58.0090608 46.4061765,58.9542385 46.88,59.93 L27.65,59.98 L24.78,59.99 C24.71,59.72 23.5,55.02 20.87,52.93 C20.5569122,52.679263 20.2143771,52.4676972 19.85,52.3 C19.82,52.31 19.8,52.32 19.77,52.33 C19.17,52.54 18.54,52.75 17.9,52.97 C17.89,52.96 17.87,52.95 17.86,52.94 C17.5556688,52.6794682 17.215538,52.4639398 16.85,52.3 C15.16,52.89 13.21,53.54 11.43,54.07 C10.67,54.3 9.94,54.5 9.27,54.67 C8.62676625,54.2742562 8.14753634,53.660132 7.92,52.94 C7.65806229,52.2276891 7.56229323,51.4649569 7.64,50.71 C7.87036773,49.9391054 7.94848689,49.1307419 7.87,48.33 C7.61,47.32 6.65,47.07 5.88,46.53 C5.27,46.09 6.38,44.68 6.38,44.68 C6.38,44.68 5.2,43.81 4.78,43.43 C4.34,43.07 4.96,42.45 5.51,41.28 C5.73694079,40.7719796 5.80323378,40.2067446 5.7,39.66 C5.49,38.59 3.86,38.18 3.07,37.59 C2.69,37.31 2.08,36.89 2.01,36.38 C1.9,35.67 2.74,34.67 3.15,34.17 C4.89454657,31.9217816 6.38996718,29.4908848 7.61,26.92 C7.77010631,26.6486227 7.86589137,26.3441631 7.89,26.03 C7.87,24.6 5.8,24.01 5.61,22.62 C5.58022555,22.2120559 5.65239212,21.803112 5.82,21.43 C6.39667192,20.2042401 6.89109856,18.9414478 7.3,17.65 C7.54612792,16.4653226 7.86336869,15.2965408 8.25,14.15 C9.08859812,11.8496676 10.3808376,9.74127689 12.05,7.95 C14.5,5.36 18.12,4.08 21.54,3.4 C24.5813721,2.73504394 27.6655865,2.28393999 30.77,2.05 C31.22,2.08 31.66,2.12 32.09,2.18 C36.6646239,2.84104823 40.9613464,4.77457335 44.49,7.76 C47.1927291,9.77631392 49.1683037,12.6151058 50.12,15.85 C50.8451888,18.5213389 51.1852867,21.2825294 51.13,24.05 C51.110834,26.7831121 50.3129958,29.4541358 48.83,31.75 C47.34,34.1 45.38,36.14 44.26,38.71 Z" id="Shape" fill="#FFFFFF"/><path d="M44.26,38.71 C42.9803538,41.6319437 42.5006323,44.8415908 42.87,48.01 C43.0951005,50.0721875 43.5033794,52.1102353 44.09,54.1 C44.4048963,55.1305317 44.802868,56.1338218 45.28,57.1 C45.8718004,58.0090608 46.4061765,58.9542385 46.88,59.93 L27.65,59.98 C27.55,59.6 26.03,53.8 22.72,52.3 C22.13,52.51 21.51,52.72 20.87,52.93 C20.8385311,52.9475899 20.8049188,52.9610348 20.77,52.97 C20.4691967,52.7096627 20.1323908,52.4941069 19.77,52.33 C19.75,52.32 19.74,52.31 19.72,52.3 C19.13,52.51 18.5,52.72 17.86,52.94 C15.91,53.59 13.82,54.25 12.14,54.67 C11.8682142,54.5157011 11.6274621,54.3122486 11.43,54.07 C11.1453175,53.7384628 10.9279367,53.3546498 10.79,52.94 C10.5280623,52.2276891 10.4322932,51.4649569 10.51,50.71 C10.7403677,49.9391054 10.8184869,49.1307419 10.74,48.33 C10.48,47.32 9.52,47.07 8.75,46.53 C8.14,46.09 9.25,44.68 9.25,44.68 C9.25,44.68 8.07,43.81 7.65,43.43 C7.21,43.07 7.83,42.45 8.38,41.28 C8.60694079,40.7719796 8.67323378,40.2067446 8.57,39.66 C8.36,38.59 6.73,38.18 5.94,37.59 C5.56,37.31 4.95,36.89 4.88,36.38 C4.77,35.67 5.61,34.67 6.02,34.17 C7.76454657,31.9217816 9.25996718,29.4908848 10.48,26.92 C10.6401063,26.6486227 10.7358914,26.3441631 10.76,26.03 C10.74,24.6 8.67,24.01 8.48,22.62 C8.45022555,22.2120559 8.52239212,21.803112 8.69,21.43 C9.26667192,20.2042401 9.76109856,18.9414478 10.17,17.65 C10.4161279,16.4653226 10.7333687,15.2965408 11.12,14.15 C11.9585981,11.8496676 13.2508376,9.74127689 14.92,7.95 C17.37,5.36 20.99,4.08 24.41,3.4 C26.9456224,2.85244071 29.5095166,2.44515544 32.09,2.18 C36.6646239,2.84104823 40.9613464,4.77457335 44.49,7.76 C47.1927291,9.77631392 49.1683037,12.6151058 50.12,15.85 C50.8451888,18.5213389 51.1852867,21.2825294 51.13,24.05 C51.110834,26.7831121 50.3129958,29.4541358 48.83,31.75 C47.34,34.1 45.38,36.14 44.26,38.71 Z" id="Shape" fill="#E8EDFC"/><path d="M60,13.06 L60,14.94 C60.0029443,15.3224665 59.7347525,15.6535158 59.36,15.73 L56.5,16.3 C56.3057445,17.0296049 56.0130565,17.7293647 55.63,18.38 L57.26,20.81 C57.4625706,21.131305 57.4169882,21.5498351 57.15,21.82 L55.82,23.15 C55.5498351,23.4169882 55.131305,23.4625706 54.81,23.26 L52.38,21.63 C52.26,21.7 52.13,21.77 52,21.84 C51.4599842,22.1232912 50.8897042,22.344694 50.3,22.5 L50.13,23.38 L47.62,23.88 C47.4267727,24.5993912 47.1586398,25.2965367 46.82,25.96 C46.5369146,25.8817939 46.3233413,25.6488049 46.27,25.36 L45.7,22.5 C44.9703951,22.3057445 44.2706353,22.0130565 43.62,21.63 L41.19,23.26 C40.868695,23.4625706 40.4501649,23.4169882 40.18,23.15 L38.85,21.82 C38.5830118,21.5498351 38.5374294,21.131305 38.74,20.81 L40.37,18.38 C39.9869435,17.7293647 39.6942555,17.0296049 39.5,16.3 L36.64,15.73 C36.2652475,15.6535158 35.9970557,15.3224665 36,14.94 L36,13.06 C35.9970557,12.6775335 36.2652475,12.3464842 36.64,12.27 L39.5,11.7 C39.6145537,11.2558041 39.7719586,10.8237779 39.97,10.41 C40.0831938,10.1369441 40.2169097,9.87285515 40.37,9.62 L39.45,8.25 L38.74,7.19 C38.5506662,6.88566096 38.5789303,6.49400065 38.81,6.22 L38.85,6.18 L40.18,4.85 C40.4501649,4.58301184 40.868695,4.53742936 41.19,4.74 L43.62,6.37 C44.2706353,5.98694354 44.9703951,5.69425553 45.7,5.5 L46.27,2.64 C46.3464842,2.26524748 46.6775335,1.99705566 47.06,2 L48.94,2 C49.3224665,1.99705566 49.6535158,2.26524748 49.73,2.64 L50.3,5.5 C51.0296049,5.69425553 51.7293647,5.98694354 52.38,6.37 L54.81,4.74 C55.131305,4.53742936 55.5498351,4.58301184 55.82,4.85 L57.15,6.18 C57.4169882,6.45016492 57.4625706,6.86869501 57.26,7.19 L55.63,9.62 C56.0130565,10.2706353 56.3057445,10.9703951 56.5,11.7 L59.36,12.27 C59.7347525,12.3464842 60.0029443,12.6775335 60,13.06 Z" id="Shape" fill="#A4C2F7"/><path d="M60,13.06 L60,14.94 C60.0029443,15.3224665 59.7347525,15.6535158 59.36,15.73 L56.5,16.3 C56.3057445,17.0296049 56.0130565,17.7293647 55.63,18.38 L57.26,20.81 C57.4625706,21.131305 57.4169882,21.5498351 57.15,21.82 L55.82,23.15 C55.5498351,23.4169882 55.131305,23.4625706 54.81,23.26 L53.55,22.42 L54.15,21.82 C54.4169882,21.5498351 54.4625706,21.131305 54.26,20.81 L52.63,18.38 C53.0130565,17.7293647 53.3057445,17.0296049 53.5,16.3 L56.36,15.73 C56.7347525,15.6535158 57.0029443,15.3224665 57,14.94 L57,13.06 C57.0029443,12.6775335 56.7347525,12.3464842 56.36,12.27 L53.5,11.7 C53.3057445,10.9703951 53.0130565,10.2706353 52.63,9.62 L54.26,7.19 C54.4625706,6.86869501 54.4169882,6.45016492 54.15,6.18 L53.55,5.58 L54.81,4.74 C55.131305,4.53742936 55.5498351,4.58301184 55.82,4.85 L57.15,6.18 C57.4169882,6.45016492 57.4625706,6.86869501 57.26,7.19 L55.63,9.62 C56.0130565,10.2706353 56.3057445,10.9703951 56.5,11.7 L59.36,12.27 C59.7347525,12.3464842 60.0029443,12.6775335 60,13.06 Z" id="Shape" fill="#7FACFA"/><path d="M53,14 C53,16.7614237 50.7614237,19 48,19 C47.4920766,18.9984453 46.986978,18.9243642 46.5,18.78 C44.4160564,18.1199968 42.9998679,16.185961 42.9998679,14 C42.9998679,11.814039 44.4160564,9.88000321 46.5,9.22 C46.986978,9.07563582 47.4920766,9.00155469 48,9 C50.7614237,9 53,11.2385763 53,14 Z" id="Shape" fill="#A4C2F7"/><ellipse id="Oval" fill="#FFFFFF" cx="46.5" cy="14" rx="3.5" ry="4.78"/><path d="M52,19.82 L52,22.18 C52.000097,22.6552686 51.6656663,23.0649463 51.2,23.16 L50.13,23.38 L47.62,23.88 C47.4267727,24.5993912 47.1586398,25.2965367 46.82,25.96 C46.73,26.14 46.64,26.31 46.54,26.48 L48.57,29.51 C48.8321051,29.9074027 48.7777237,30.4344844 48.44,30.77 L46.77,32.44 C46.4344844,32.7777237 45.9074027,32.8321051 45.51,32.57 L42.48,30.54 C41.6640988,31.0117607 40.7900264,31.3748369 39.88,31.62 L39.16,35.2 C39.0649463,35.6656663 38.6552686,36.000097 38.18,36 L35.82,36 C35.3447314,36.000097 34.9350537,35.6656663 34.84,35.2 L34.12,31.62 C33.2099736,31.3748369 32.3359012,31.0117607 31.52,30.54 L28.49,32.57 C28.0925973,32.8321051 27.5655156,32.7777237 27.23,32.44 L25.56,30.77 C25.2222763,30.4344844 25.1678949,29.9074027 25.43,29.51 L27.46,26.48 C26.9882393,25.6640988 26.6251631,24.7900264 26.38,23.88 L22.8,23.16 C22.3343337,23.0649463 21.999903,22.6552686 22,22.18 L22,19.82 C21.999903,19.3447314 22.3343337,18.9350537 22.8,18.84 L26.38,18.12 C26.6251631,17.2099736 26.9882393,16.3359012 27.46,15.52 L25.43,12.49 C25.1678949,12.0925973 25.2222763,11.5655156 25.56,11.23 L27.23,9.56 C27.5655156,9.22227632 28.0925973,9.16789487 28.49,9.43 L31.52,11.46 C32.3359012,10.9882393 33.2099736,10.6251631 34.12,10.38 L34.84,6.8 C34.9350537,6.33433375 35.3447314,5.999903 35.82,6 L38.18,6 C38.6565241,5.99635761 39.0681685,6.33239386 39.16,6.8 L39.45,8.25 L39.88,10.38 L39.97,10.41 C40.8486935,10.649575 41.6924527,11.002542 42.48,11.46 L45.51,9.43 C45.9074027,9.16789487 46.4344844,9.22227632 46.77,9.56 L48.44,11.23 C48.7777237,11.5655156 48.8321051,12.0925973 48.57,12.49 L46.54,15.52 C47.0117607,16.3359012 47.3748369,17.2099736 47.62,18.12 L51.2,18.84 C51.6656663,18.9350537 52.000097,19.3447314 52,19.82 Z" id="Shape" fill="#A4C2F7"/><path d="M52,19.82 L52,22.18 C52.000097,22.6552686 51.6656663,23.0649463 51.2,23.16 L50.13,23.38 L48.32,23.74 L47.62,23.88 C47.4267727,24.5993912 47.1586398,25.2965367 46.82,25.96 C46.73,26.14 46.64,26.31 46.54,26.48 L48.57,29.51 C48.8321051,29.9074027 48.7777237,30.4344844 48.44,30.77 L46.77,32.44 C46.4344844,32.7777237 45.9074027,32.8321051 45.51,32.57 L44.39,31.82 L45.44,30.77 C45.7777237,30.4344844 45.8321051,29.9074027 45.57,29.51 L43.54,26.48 C43.64,26.31 43.73,26.14 43.82,25.96 C44.1586398,25.2965367 44.4267727,24.5993912 44.62,23.88 L47.13,23.38 L48.2,23.16 C48.6656663,23.0649463 49.000097,22.6552686 49,22.18 L49,19.82 C49.000097,19.3447314 48.6656663,18.9350537 48.2,18.84 L44.62,18.12 C44.3748369,17.2099736 44.0117607,16.3359012 43.54,15.52 L45.57,12.49 C45.8321051,12.0925973 45.7777237,11.5655156 45.44,11.23 L44.39,10.18 L45.51,9.43 C45.9074027,9.16789487 46.4344844,9.22227632 46.77,9.56 L48.44,11.23 C48.7777237,11.5655156 48.8321051,12.0925973 48.57,12.49 L46.54,15.52 C47.0117607,16.3359012 47.3748369,17.2099736 47.62,18.12 L51.2,18.84 C51.6656663,18.9350537 52.000097,19.3447314 52,19.82 Z" id="Shape" fill="#7FACFA"/><circle id="Oval" fill="#FFFFFF" cx="37" cy="21" r="6"/><path d="M4.885,21.074 C5.305,19.983 5.811,19.033 6.126,18.107 C6.204,17.878 6.272,17.647 6.326,17.427 L6.508,16.633 C6.632,16.098 6.765,15.555 6.922,15.009 C7.56517672,12.8096861 8.59233564,10.7414878 9.956,8.9 C10.3790597,8.32886387 10.8355231,7.78324488 11.323,7.266 L12.777,8.638 C12.3437636,9.09898177 11.9377428,9.58480432 11.561,10.093 C10.3406154,11.7428219 9.42054343,13.5948137 8.843,15.564 C8.7,16.064 8.576,16.569 8.454,17.089 L8.274,17.879 C8.2,18.186 8.114,18.479 8.017,18.758 C7.627,19.885 7.108,20.858 6.754,21.788 L4.885,21.074 Z" id="Shape" fill="#FFFFFF"/><path d="M7.509,16.738 C6.97414814,16.6162587 6.44035907,16.9454286 6.309,17.478 C5.90443046,18.7049777 5.4279386,19.9070595 4.882,21.078 L6.751,21.79 C7.33379155,20.5442456 7.83485144,19.2618663 8.251,17.951 C8.31498697,17.69166 8.27255786,17.4174995 8.13317087,17.1896337 C7.99378388,16.9617679 7.76902609,16.7991391 7.509,16.738 Z" id="Shape" fill="#428DFF"/><path d="M12.777,8.636 L11.323,7.264 C10.835461,7.78189084 10.3789965,8.32817903 9.956,8.9 C9.74466667,9.18266667 9.54266667,9.47133333 9.35,9.766 C9.19598673,9.98983019 9.14170008,10.2675101 9.20007769,10.5328629 C9.2584553,10.7982157 9.4242683,11.0274737 9.658,11.166 C10.1207884,11.4363395 10.7136211,11.3057596 11.02,10.866 C11.1926667,10.5993333 11.373,10.3416667 11.561,10.093 C11.9376805,9.58411975 12.3437024,9.09762806 12.777,8.636 Z" id="Shape" fill="#428DFF"/><path d="M7.427,13.5 C7.32846374,13.7587388 7.33456126,14.0456806 7.444,14.3 L7.544,14.466 C7.58458686,14.520215 7.63235788,14.5686589 7.686,14.61 C7.73087178,14.6550551 7.78249118,14.6928419 7.839,14.722 C7.89868953,14.7530242 7.96051255,14.7797585 8.024,14.802 C8.27620882,14.8764 8.54665732,14.8586773 8.787,14.752 C8.89960058,14.6958903 9.00121253,14.6200201 9.087,14.528 C9.34961001,14.2470231 9.42424048,13.8387046 9.278,13.483 C9.22379412,13.3646715 9.14934268,13.2567169 9.058,13.164 C8.96783743,13.0691824 8.86063924,12.9921761 8.742,12.937 C8.49807554,12.830831 8.2221346,12.8250823 7.974,12.921 C7.72382529,13.0362422 7.52784815,13.2436842 7.427,13.5 Z" id="Shape" fill="#428DFF"/><path d="M10.514,56 C8.86372595,55.9701249 7.42735863,54.863915 6.977,53.276 C6.65563657,52.4166831 6.53988213,51.4940722 6.639,50.582 C6.676,50.316 6.733,50.057 6.792,49.797 C6.91820601,49.4065239 6.95578392,48.9928253 6.902,48.586 C6.822,48.275 6.592,48.119 6.002,47.786 C5.764,47.65 5.523,47.511 5.302,47.351 C4.97985582,47.1189888 4.76752783,46.7645059 4.715,46.371 C4.67685435,45.8682176 4.79041543,45.365553 5.041,44.928 C4.7,44.667 4.327,44.373 4.111,44.178 C3.187,43.422 3.799,42.339 4.166,41.693 C4.3,41.455 4.457,41.18 4.606,40.86 C4.74371283,40.542885 4.7830777,40.1917364 4.719,39.852 C4.668,39.592 3.944,39.222 3.511,39.001 C3.14921108,38.8296521 2.80205232,38.6289823 2.473,38.401 C1.75428311,37.9945624 1.23002144,37.3152577 1.019,36.517 C0.86,35.487 1.619,34.458 2.344,33.575 C4.05549416,31.369866 5.52274253,28.9855874 6.72,26.464 C6.79639369,26.3278576 6.85360177,26.1818088 6.89,26.03 C6.89,25.754 6.563,25.438 6.073,24.989 C5.33568064,24.4450199 4.8168587,23.6556162 4.61,22.763 C4.5609791,22.1894723 4.65441414,21.6127171 4.882,21.084 C5.00021488,20.741564 5.29438591,20.4898402 5.65097955,20.4259799 C6.0075732,20.3621196 6.37081961,20.4961103 6.60052603,20.7762391 C6.83023244,21.0563678 6.89047368,21.4388237 6.758,21.776 C6.65801579,22.0038213 6.6017065,22.2483936 6.592,22.497 C6.635,22.797 7.018,23.142 7.423,23.514 C8.25031249,24.0961682 8.78526997,25.0078204 8.89,26.014 C8.87041665,26.4900706 8.73665762,26.9544545 8.5,27.368 C7.24789539,30.0035133 5.71358706,32.4954232 3.924,34.8 C3.163,35.73 3,36.1 3,36.249 C3.18487589,36.4288287 3.3857006,36.5914967 3.6,36.735 C3.8610164,36.9170713 4.13661917,37.0772821 4.424,37.214 C5.277,37.65 6.446,38.248 6.685,39.468 C6.82881169,40.2232671 6.7359138,41.0045174 6.419,41.705 C6.245,42.076 6.065,42.396 5.908,42.672 C5.859,42.758 5.808,42.854 5.757,42.941 C6.172,43.275 6.738,43.699 6.977,43.875 C7.1948369,44.0361576 7.33794805,44.2788177 7.37357522,44.5474353 C7.40920239,44.8160529 7.33429522,45.0876291 7.166,45.3 C7.01709318,45.4933561 6.8877899,45.7010453 6.78,45.92 L7,46.042 C7.88050319,46.4228698 8.55275319,47.1666125 8.843,48.081 C8.99020139,48.7957397 8.95581949,49.5359821 8.743,50.234 C8.697,50.434 8.65,50.643 8.621,50.848 C8.56848532,51.4497397 8.65293078,52.055559 8.868,52.62 C9.09114704,53.541105 9.99656857,54.1261128 10.928,53.951 C13.8402836,53.250326 16.7097178,52.3822169 19.522,51.351 C20.0439091,51.1695745 20.6140745,51.4455909 20.7955,51.9675 C20.9769255,52.4894091 20.7009091,53.0595745 20.179,53.241 C17.2847674,54.3019198 14.3306722,55.191788 11.332,55.906 C11.0632143,55.9649182 10.7891441,55.9964129 10.514,56 Z M5.414,42.661 L5.445,42.689 L5.414,42.661 Z" id="Shape" fill="#428DFF"/><path d="M12.05,8.95 C11.6505745,8.95013686 11.2893784,8.71257247 11.1313026,8.34575817 C10.9732267,7.97894386 11.0485947,7.55324547 11.323,7.263 C13.559,4.9 16.836,3.315 21.345,2.419 C24.5307612,1.72066432 27.7634202,1.25675503 31.017,1.031 C32.1758293,0.971062542 33.3374622,0.994121422 34.493,1.1 C35.0452847,1.15136248 35.4513625,1.64071525 35.4,2.193 C35.3486375,2.74528475 34.8592847,3.15136248 34.307,3.1 C33.2483942,3.00000337 32.1839091,2.97727653 31.122,3.032 C27.9660228,3.25235559 24.8303506,3.70288704 21.74,4.38 C17.704,5.18 14.69,6.614 12.776,8.637 C12.5872672,8.83662757 12.3247202,8.94981934 12.05,8.95 Z" id="Shape" fill="#428DFF"/><path d="M11.226,18.467 C10.9626963,18.4088525 10.7340342,18.2468349 10.5918835,18.0176992 C10.4497328,17.7885636 10.4061423,17.5117316 10.471,17.25 C10.6281597,16.5552533 10.8251517,15.8701218 11.061,15.198 C11.7561457,13.2732275 12.833794,11.5091228 14.229,10.012 C15.853,8.3 18.516,7.06 22.145,6.338 C22.6867913,6.23058063 23.2130806,6.58270867 23.3205,7.1245 C23.4279194,7.66629134 23.0757913,8.19258061 22.534,8.3 C19.32,8.939 17.015,9.978 15.682,11.386 C14.4735869,12.6860602 13.5399523,14.2166087 12.937,15.886 C12.7283699,16.4873676 12.5537603,17.1000036 12.414,17.721 C12.2880751,18.2523001 11.7592551,18.5843706 11.226,18.467 Z" id="Shape" fill="#A4C2F7"/><path d="M24.78,61 C24.3194886,60.9998779 23.9186017,60.6852787 23.809,60.238 C23.42,58.657 21.879,54.314 19.438,53.211 C19.0639436,53.0419148 18.8312137,52.6614066 18.8510746,52.25139 C18.8709354,51.8413735 19.1393525,51.4851405 19.528,51.353 C20.568,51 21.51,50.67 22.253,50.411 C22.953,50.168 23.472,49.985 23.744,49.898 C27.901,48.574 28.744,47.076 28.72,46.053 C28.7138345,45.7872547 28.8137271,45.5299897 28.9976105,45.338038 C29.1814939,45.1460862 29.4342349,45.0352448 29.7,45.03 C29.9664326,45.0188627 30.225938,45.116558 30.4188789,45.3006346 C30.6118198,45.4847112 30.7216034,45.7393384 30.723,46.006 C30.782,48.488 28.64,50.438 24.358,51.806 C24.096,51.89 23.589,52.067 22.917,52.306 L22.017,52.619 C23.6667603,54.4458988 24.8712025,56.6299129 25.536,59 L48.218,58.937 L48.151,58.837 C47.8629471,58.4220892 47.6039935,57.9877154 47.376,57.537 C46.8782986,56.5265618 46.4632745,55.4774636 46.135,54.4 C45.5280792,52.3534162 45.1070392,50.2562489 44.877,48.134 C44.4826514,44.7885258 44.9887491,41.3984307 46.343,38.314 C47.141408,36.6448155 48.1288779,35.0728493 49.286,33.629 C49.866,32.847 50.466,32.039 50.986,31.218 C51.8255164,29.9151629 52.4344133,28.4774896 52.786,26.968 C52.9178068,26.4379993 53.4504578,26.1117757 53.9824685,26.2352197 C54.5144792,26.3586636 54.8490505,26.8861113 54.734,27.42 C54.3319881,29.1495518 53.6351388,30.7969577 52.674,32.29 C52.115,33.171 51.493,34.01 50.892,34.82 C49.8264731,36.143142 48.9152569,37.5834407 48.176,39.113 C46.9645672,41.8709663 46.510966,44.9022242 46.862,47.894 C47.0786672,49.8974026 47.4745867,51.8773347 48.045,53.81 C48.344269,54.7877785 48.7218236,55.7398582 49.174,56.657 C49.3652956,57.0312578 49.581794,57.3920885 49.822,57.737 C50.2467077,58.3199385 50.5876858,58.9594827 50.835,59.637 C50.9304293,59.9404437 50.8757998,60.2711879 50.6878608,60.5278273 C50.4999218,60.7844667 50.201095,60.9363833 49.883,60.937 L24.783,61.007 L24.78,61 Z" id="Shape" fill="#428DFF"/><path d="M38.18,37 L35.82,37 C34.8665593,37.0004731 34.045351,36.3278524 33.858,35.393 L33.258,32.405 C32.6795956,32.215064 32.1166112,31.9810443 31.574,31.705 L29.047,33.4 C28.247926,33.9287833 27.1864487,33.8186142 26.513,33.137 L24.853,31.477 C24.1814694,30.8074327 24.0724653,29.7583205 24.592,28.965 L26.292,26.426 C26.0159557,25.8833888 25.781936,25.3204044 25.592,24.742 L22.6,24.142 C21.6679307,23.9517429 20.9988547,23.1312884 21,22.18 L21,19.82 C20.9995269,18.8665593 21.6721476,18.045351 22.607,17.858 L25.595,17.258 C25.784936,16.6795956 26.0189557,16.1166112 26.295,15.574 L24.6,13.047 C24.0684732,12.2480835 24.1792627,11.1842524 24.864,10.512 L26.523,8.853 C27.1925673,8.18146939 28.2416795,8.07246529 29.035,8.592 L31.574,10.292 C32.1166112,10.0159557 32.6795956,9.78193603 33.258,9.592 L33.858,6.6 C34.0482571,5.66793067 34.8687116,4.99885469 35.82,5 L38.18,5 C39.1334407,4.99952695 39.954649,5.67214759 40.142,6.607 L40.742,9.595 C41.3204044,9.78493603 41.8833888,10.0189557 42.426,10.295 L44.953,8.6 C45.7519165,8.0684732 46.8157476,8.17926272 47.488,8.864 L49.147,10.523 C49.8185306,11.1925673 49.9275347,12.2416795 49.408,13.035 L47.708,15.574 C47.9840443,16.1166112 48.218064,16.6795956 48.408,17.258 L51.4,17.858 C52.3320693,18.0482571 53.0011453,18.8687116 53,19.82 L53,22.18 C53.0004731,23.1334407 52.3278524,23.954649 51.393,24.142 L48.405,24.742 C48.215064,25.3204044 47.9810443,25.8833888 47.705,26.426 L49.4,28.953 C49.9315268,29.7519165 49.8207373,30.8157476 49.136,31.488 L47.477,33.147 C46.8074327,33.8185306 45.7583205,33.9275347 44.965,33.408 L42.426,31.708 C41.8833888,31.9840443 41.3204044,32.218064 40.742,32.408 L40.142,35.4 C39.9517429,36.3320693 39.1312884,37.0011453 38.18,37 Z M31.52,29.54 C31.6956299,29.5403117 31.8680802,29.5868732 32.02,29.675 C32.7610951,30.1028258 33.5547759,30.4322656 34.381,30.655 C34.7468426,30.7540576 35.0252418,31.0514298 35.1,31.423 L35.82,35 L38.18,35 L38.899,31.423 C38.9737582,31.0514298 39.2521574,30.7540576 39.618,30.655 C40.4442241,30.4322656 41.2379049,30.1028258 41.979,29.675 C42.3092429,29.4834438 42.7197375,29.4966355 43.037,29.709 L46.066,31.739 L47.733,30.063 L45.709,27.037 C45.4966355,26.7197375 45.4834438,26.3092429 45.675,25.979 C46.1028258,25.2379049 46.4322656,24.4442241 46.655,23.618 C46.7540576,23.2521574 47.0514298,22.9737582 47.423,22.899 L51,22.18 L51,19.819 L47.423,19.1 C47.0514298,19.0252418 46.7540576,18.7468426 46.655,18.381 C46.4322656,17.5547759 46.1028258,16.7610951 45.675,16.02 C45.4834438,15.6897571 45.4966355,15.2792625 45.709,14.962 L47.739,11.933 L46.063,10.267 L43.037,12.291 C42.7197375,12.5033645 42.3092429,12.5165562 41.979,12.325 C41.2379049,11.8971742 40.4442241,11.5677344 39.618,11.345 C39.2521574,11.2459424 38.9737582,10.9485702 38.899,10.577 L38.18,7 L35.82,7 L35.1,10.577 C35.0252418,10.9485702 34.7468426,11.2459424 34.381,11.345 C33.5547759,11.5677344 32.7610951,11.8971742 32.02,12.325 C31.6897571,12.5165562 31.2792625,12.5033645 30.962,12.291 L27.933,10.261 L26.266,11.937 L28.29,14.963 C28.5023645,15.2802625 28.5155562,15.6907571 28.324,16.021 C27.8961742,16.7620951 27.5667344,17.5557759 27.344,18.382 C27.2449424,18.7478426 26.9475702,19.0262418 26.576,19.101 L23,19.82 L23,22.18 L26.577,22.899 C26.9485702,22.9737582 27.2459424,23.2521574 27.345,23.618 C27.5677344,24.4442241 27.8971742,25.2379049 28.325,25.979 C28.5165562,26.3092429 28.5033645,26.7197375 28.291,27.037 L26.261,30.066 L27.937,31.733 L30.963,29.709 C31.1279568,29.5990103 31.3217364,29.5402154 31.52,29.54 Z" id="Shape" fill="#428DFF"/><path d="M55.25,24.388 C54.9063394,24.3875727 54.5697752,24.2901736 54.279,24.107 L52.324,22.8 C51.8361158,22.9675717 51.3008271,22.7365244 51.0881243,22.2665576 C50.8754216,21.7965907 51.0551147,21.2419492 51.503,20.986 L51.924,20.744 C52.2473084,20.5781649 52.6351298,20.6007527 52.937,20.803 L55.223,22.337 L56.333,21.227 L54.8,18.937 C54.5850329,18.6164292 54.5737461,18.2007641 54.771,17.869 C55.1079017,17.2965611 55.365267,16.6809029 55.536,16.039 C55.6350543,15.6722153 55.9333999,15.3932427 56.306,15.319 L59.006,14.782 L59.006,13.218 L56.311,12.681 C55.9383999,12.6067573 55.6400543,12.3277847 55.541,11.961 C55.370267,11.3190971 55.1129017,10.7034389 54.776,10.131 C54.5772476,9.80019329 54.586588,9.38454458 54.8,9.063 L56.334,6.777 L55.224,5.667 L52.937,7.2 C52.6164292,7.41496713 52.2007641,7.42625392 51.869,7.229 C51.2965611,6.89209833 50.6809029,6.63473301 50.039,6.464 C49.6722153,6.36494573 49.3932427,6.06660008 49.319,5.694 L48.782,3 L47.218,3 L46.681,5.7 C46.6067573,6.07260008 46.3277847,6.37094573 45.961,6.47 C45.3190971,6.64073301 44.7034389,6.89809833 44.131,7.235 C43.7980885,7.43046291 43.3823997,7.41684015 43.063,7.2 L40.777,5.667 L39.567,6.877 C39.173681,7.27465427 38.5348945,7.28575202 38.128,6.902 C37.9367839,6.72338204 37.8259328,6.47502402 37.8206591,6.21341328 C37.8153855,5.95180254 37.9161376,5.69917894 38.1,5.513 L39.47,4.143 C40.0684306,3.54372655 41.0025289,3.43984551 41.718,3.893 L43.674,5.2 C44.0498753,5.01214447 44.4381067,4.85010296 44.836,4.715 L45.289,2.442 C45.459786,1.60042172 46.2012737,0.996680717 47.06,1 L48.94,1 C49.8031165,0.997424884 50.5465724,1.60788105 50.712,2.455 L51.164,4.718 C51.5617126,4.85318876 51.9499161,5.01488454 52.326,5.202 L54.253,3.91 C54.9708411,3.44062188 55.919263,3.53779968 56.527,4.143 L57.857,5.473 C58.4569909,6.07108524 58.5609303,7.00570823 58.107,7.721 L56.8,9.674 C56.9878555,10.0498753 57.149897,10.4381067 57.285,10.836 L59.558,11.289 C60.3995783,11.459786 61.0033193,12.2012737 61,13.06 L61,14.94 C61.0030557,15.8034925 60.3924897,16.5475016 59.545,16.713 L57.282,17.164 C57.1468112,17.5617126 56.9851155,17.9499161 56.798,18.326 L58.09,20.253 C58.5589835,20.970937 58.4618334,21.9190891 57.857,22.527 L56.527,23.857 C56.1890276,24.1969894 55.7293935,24.3881137 55.25,24.388 Z" id="Shape" fill="#428DFF"/><path d="M37,28 C33.1340068,28 30,24.8659932 30,21 C30,17.1340068 33.1340068,14 37,14 C40.8659932,14 44,17.1340068 44,21 C43.9955914,24.8641657 40.8641657,27.9955914 37,28 Z M37,16 C34.2385763,16 32,18.2385763 32,21 C32,23.7614237 34.2385763,26 37,26 C39.7614237,26 42,23.7614237 42,21 C41.9966939,18.2399468 39.7600532,16.0033061 37,16 Z" id="Shape" fill="#7FACFA"/><circle id="Oval" fill="#7FACFA" cx="37" cy="21" r="1"/><path d="M50.11,19.59 C49.6351463,19.5903529 49.2255261,19.2567132 49.1297909,18.79161 C49.0340558,18.3265068 49.2786092,17.8582144 49.715,17.671 C51.4548742,16.9180673 52.4272363,15.0471921 52.0436241,13.190606 C51.660012,11.33402 50.0258025,10.0017207 48.13,10 C47.6734829,9.99706603 47.2201951,10.0766794 46.792,10.235 C46.2838865,10.3975494 45.7376448,10.1326165 45.5507077,9.6329605 C45.3637707,9.13330447 45.6019712,8.57488707 46.092,8.364 C46.7439256,8.1211311 47.4343078,7.99782438 48.13,8 C50.9745658,8.00339275 53.425804,10.0037252 53.9995355,12.7898333 C54.5732671,15.5759413 53.1117894,18.382003 50.5,19.509 C50.3767471,19.5618798 50.2441164,19.5894261 50.11,19.59 Z" id="Shape" fill="#428DFF"/><circle id="Oval" fill="#A4C2F7" cx="10" cy="22" r="1"/></g></g></svg>
