<svg id="Capa_1" enable-background="new 0 0 503.333 503.333" height="512" viewBox="0 0 503.333 503.333" width="512" xmlns="http://www.w3.org/2000/svg"><g><path d="m306.167 460.583v12.75c0 1.12-.06 2.24-.18 3.33-1.66 15-14.38 26.67-29.82 26.67h-46c-15.44 0-28.16-11.67-29.82-26.67-.12-1.09-.18-2.21-.18-3.33v-12.75c3.97 1.77 8.37 2.75 13 2.75h80c4.63 0 9.03-.98 13-2.75z" fill="#50758d"/><g fill="#ffe7c9"><path d="m251.667 65.563c-4.143 0-7.5-3.357-7.5-7.5v-50.563c0-4.143 3.357-7.5 7.5-7.5s7.5 3.357 7.5 7.5v50.563c0 4.143-3.358 7.5-7.5 7.5z"/><path d="m117.041 121.328c-1.92 0-3.839-.732-5.304-2.196l-35.754-35.755c-2.929-2.93-2.929-7.678 0-10.607 2.931-2.929 7.679-2.927 10.607 0l35.754 35.755c2.929 2.93 2.929 7.678 0 10.607-1.465 1.464-3.385 2.196-5.303 2.196z"/><path d="m61.277 255.953h-50.564c-4.143 0-7.5-3.357-7.5-7.5s3.357-7.5 7.5-7.5h50.563c4.143 0 7.5 3.357 7.5 7.5s-3.357 7.5-7.499 7.5z"/><path d="m81.287 426.333c-1.919 0-3.839-.732-5.304-2.196-2.929-2.93-2.929-7.678 0-10.607l35.754-35.754c2.93-2.928 7.678-2.928 10.607 0 2.929 2.93 2.929 7.678 0 10.607l-35.754 35.754c-1.465 1.464-3.384 2.196-5.303 2.196z"/><path d="m422.046 426.333c-1.919 0-3.839-.732-5.304-2.196l-35.754-35.754c-2.929-2.93-2.929-7.678 0-10.607 2.93-2.928 7.678-2.928 10.607 0l35.754 35.754c2.929 2.93 2.929 7.678 0 10.607-1.464 1.464-3.384 2.196-5.303 2.196z"/><path d="m492.62 255.953h-50.563c-4.143 0-7.5-3.357-7.5-7.5s3.357-7.5 7.5-7.5h50.563c4.143 0 7.5 3.357 7.5 7.5s-3.358 7.5-7.5 7.5z"/><path d="m386.292 121.328c-1.919 0-3.839-.732-5.304-2.196-2.929-2.93-2.929-7.678 0-10.607l35.754-35.755c2.93-2.928 7.678-2.928 10.607 0 2.929 2.93 2.929 7.678 0 10.607l-35.754 35.755c-1.464 1.464-3.384 2.196-5.303 2.196z"/></g><path d="m253.167 453.333s-49.03 9.02-53 7.25v12.75c0 1.12.06 2.24.18 3.33 1.66 15 14.38 26.67 29.82 26.67h13c-13.045 0-24.146-8.331-28.278-19.961-.699-1.967.733-4.039 2.82-4.039h75.458c4.56 0 8.9-.95 12.82-2.67.12-1.09.18-2.21.18-3.33v-12.75c-3.97 1.77-53-7.25-53-7.25z" fill="#2b597f"/><path d="m325.167 431.333c0 13.04-7.81 24.27-19 29.25-3.97 1.77-8.37 2.75-13 2.75h-80c-4.63 0-9.03-.98-13-2.75-11.19-4.98-19-16.21-19-29.25 0 0-.47-46.74-.56-47.96v-.04l72.56-10 71.73 10z" fill="#50758d"/><path d="m230.167 463.333h-17c-4.63 0-9.03-.98-13-2.75-11.19-4.98-19-16.21-19-29.25 0 0-.47-46.74-.56-47.96v-.04h17v.04c.09 1.22.56 47.96.56 47.96 0 13.04 7.81 24.27 19 29.25 3.969 1.77 8.369 2.75 13 2.75z" fill="#2b597f"/><path d="m325.167 430.833h-25.5c-4.14 0-7.5-3.36-7.5-7.5s3.36-7.5 7.5-7.5h25.42l.04 7.5z" fill="#2b597f"/><path d="m272.167 423.333c0 4.14-3.36 7.5-7.5 7.5h-83.51l-.17-15h83.68c4.14 0 7.5 3.36 7.5 7.5z" fill="#2b597f"/><path d="m251.797 90.503c-.001 0-.002 0-.003 0l.003-.003c-77.231-1.188-142.179 66.124-140.79 142.793 0 39.11 15.49 74.56 40.59 100.35 14.79 15.21 27.59 29.27 29.01 49.69l144.29.24c.81-21.02 12.76-35.22 27.65-50.77 24.62-25.71 39.78-60.81 39.78-99.51-.001-78.82-62.9-142.72-140.53-142.79z" fill="#fad207"/><path d="m324.896 383.543v.03l-144.29-.24c-1.42-20.42-14.22-34.48-29.01-49.69-25.1-25.79-40.59-61.24-40.59-100.35-1.39-76.67 63.56-143.98 140.79-142.79 2.49 0 4.97.07 7.43.2-72.95 4.23-132.55 69.11-131.22 142.59 0 39.11 15.49 74.56 40.59 100.35 14.79 15.21 27.59 29.27 29.01 49.69z" fill="#faa515"/><path d="m255.198 304.764c-2.993 3.855-7.539 6.188-12.416 6.369-.206.008-.412.012-.617.012-4.655 0-9.105-1.969-12.24-5.437l-47-51.999c-6.11-6.761-5.583-17.194 1.178-23.305 6.76-6.111 17.192-5.584 23.305 1.177l33.8 37.395 53.927-69.451c5.588-7.197 15.954-8.502 23.151-2.913 7.198 5.589 8.502 15.955 2.913 23.152z" fill="#faa515"/></g></svg>