<svg width="42" height="42" viewBox="0 0 42 42" fill="none" xmlns="http://www.w3.org/2000/svg">
<path d="M21 42C32.598 42 42 32.598 42 21C42 9.40202 32.598 0 21 0C9.40202 0 0 9.40202 0 21C0 32.598 9.40202 42 21 42Z" fill="#FFBEAA"/>
<path d="M41.9993 21.0523L29.6798 8.73282L27.6869 10.8938L21.8182 5.02509L23.7431 13.0561L15.001 13.8597L22.3345 21.1932L13.7726 19.9448L18.4337 24.6059L11.482 24.7368L16.1424 29.3971L8.78613 31.7822L18.8997 41.8958C19.5905 41.9643 20.291 42 20.9999 42C32.5804 42 41.971 32.6262 41.9993 21.0523Z" fill="#FAA68E"/>
<path d="M21 34.8633C28.1581 34.8633 33.9609 32.7882 33.9609 30.2285C33.9609 27.6688 28.1581 25.5938 21 25.5938C13.8419 25.5938 8.03906 27.6688 8.03906 30.2285C8.03906 32.7882 13.8419 34.8633 21 34.8633Z" fill="#555A66"/>
<path d="M21 25.5938C20.9974 25.5938 20.9948 25.5938 20.9922 25.5938V34.8633C20.9948 34.8633 20.9974 34.8633 21 34.8633C28.1581 34.8633 33.9609 32.7882 33.9609 30.2285C33.9609 27.6688 28.1581 25.5938 21 25.5938Z" fill="#414952"/>
<path d="M20.9999 27.095C26.6125 27.095 31.1625 25.468 31.1625 23.4609C31.1625 21.4539 26.6125 19.8269 20.9999 19.8269C15.3873 19.8269 10.8374 21.4539 10.8374 23.4609C10.8374 25.468 15.3873 27.095 20.9999 27.095Z" fill="#636978"/>
<path d="M21 19.8269C20.9974 19.8269 20.9948 19.8269 20.9922 19.8269V27.0949C20.9948 27.0949 20.9974 27.0949 21 27.0949C26.6126 27.0949 31.1625 25.4679 31.1625 23.4609C31.1625 21.4538 26.6126 19.8269 21 19.8269Z" fill="#555A66"/>
<path d="M21.0002 21.6635C25.3268 21.6635 28.8343 20.4092 28.8343 18.862C28.8343 17.3148 25.3268 16.0606 21.0002 16.0606C16.6735 16.0606 13.166 17.3148 13.166 18.862C13.166 20.4092 16.6735 21.6635 21.0002 21.6635Z" fill="#7E8596"/>
<path d="M21 16.0606C20.9974 16.0606 20.9948 16.0606 20.9922 16.0606V21.6634C20.9948 21.6634 20.9974 21.6634 21 21.6634C25.3267 21.6634 28.8341 20.4091 28.8341 18.8619C28.8341 17.3148 25.3267 16.0606 21 16.0606Z" fill="#707789"/>
<path d="M29.6799 8.73282L29.4773 9.87215C28.8653 13.3129 25.5801 15.6061 22.1393 14.9941L21 14.7915L21.2026 13.6522C21.8146 10.2114 25.0998 7.91825 28.5406 8.5302L29.6799 8.73282Z" fill="#E9EDF5"/>
<path d="M12.3203 8.73282L12.5229 9.87215C13.1349 13.3129 16.4202 15.6061 19.8609 14.9941L21.0002 14.7915L20.7976 13.6522C20.1856 10.2114 16.9004 7.91825 13.4596 8.5302L12.3203 8.73282Z" fill="white"/>
<path d="M21.0002 14.792L20.1819 13.9738C17.7108 11.5027 17.7108 7.49619 20.1819 5.02508L21.0002 4.20682L21.8185 5.02508C24.2896 7.49619 24.2896 11.5027 21.8185 13.9738L21.0002 14.792Z" fill="#E6E6E6"/>
<path d="M20.9927 14.7843L21.0005 14.792L21.8187 13.9738C24.2898 11.5027 24.2898 7.49619 21.8187 5.02508L21.0005 4.20682L20.9927 14.7843Z" fill="#D7D7D7"/>
</svg>
