<?xml version="1.0" standalone="no"?>
<!DOCTYPE svg PUBLIC "-//W3C//DTD SVG 20010904//EN"
 "http://www.w3.org/TR/2001/REC-SVG-20010904/DTD/svg10.dtd">
<svg version="1.0" xmlns="http://www.w3.org/2000/svg"
 width="700.000000pt" height="700.000000pt" viewBox="0 0 700.000000 700.000000"
 preserveAspectRatio="xMidYMid meet">
<metadata>
Created by potrace 1.11, written by Peter Selinger 2001-2013
</metadata>
<g transform="translate(0.000000,700.000000) scale(0.100000,-0.100000)"
fill="#000000" stroke="none">
<path d="M3438 6922 c-43 -26 -56 -67 -53 -165 3 -96 16 -127 64 -152 52 -26
125 -4 153 47 6 13 13 61 14 108 2 70 -1 92 -18 121 -33 59 -102 76 -160 41z"/>
<path d="M2329 6825 c-36 -19 -61 -61 -61 -99 0 -17 24 -87 52 -156 28 -69 61
-149 72 -178 27 -68 57 -99 103 -108 70 -13 137 40 137 108 0 29 -125 351
-154 398 -26 41 -105 60 -149 35z"/>
<path d="M4575 6826 c-47 -21 -58 -40 -134 -224 -82 -199 -88 -237 -42 -282
36 -36 72 -46 121 -31 47 14 56 29 115 172 25 63 56 134 68 159 14 29 22 65
22 102 0 50 -3 59 -30 82 -16 14 -34 26 -40 27 -5 0 -19 2 -30 4 -11 2 -33 -2
-50 -9z"/>
<path d="M1451 6127 c-53 -27 -78 -91 -56 -143 13 -32 123 -148 167 -176 58
-38 136 -12 162 53 24 60 7 99 -81 186 -94 93 -134 110 -192 80z"/>
<path d="M5454 6131 c-25 -11 -163 -147 -180 -177 -14 -24 -11 -78 7 -111 25
-47 103 -68 152 -42 31 17 155 146 170 177 7 15 12 34 11 42 -1 8 -2 23 -3 32
0 10 -13 32 -28 48 -30 34 -89 48 -129 31z"/>
<path d="M2936 5989 c-110 -24 -189 -58 -293 -126 -53 -35 -163 -140 -163
-156 0 -6 -23 -6 -57 -1 -156 21 -260 7 -379 -51 -164 -80 -299 -268 -317
-440 -4 -36 -9 -42 -53 -66 -72 -40 -156 -127 -192 -201 -41 -84 -55 -154 -50
-247 5 -69 3 -79 -23 -121 -122 -198 -153 -464 -87 -739 2 -11 -12 -17 -52
-23 -79 -12 -129 -34 -168 -75 -43 -46 -52 -67 -71 -162 -6 -30 -12 -56 -14
-57 -1 -2 -64 -4 -139 -5 -145 -1 -188 -12 -240 -60 -33 -31 -66 -94 -74 -139
-3 -19 -23 -125 -44 -235 -22 -110 -42 -215 -45 -233 -3 -18 -12 -65 -21 -105
-8 -39 -17 -87 -20 -106 -3 -18 -7 -41 -9 -50 -10 -44 -79 -396 -125 -631 -28
-146 -59 -305 -70 -355 -10 -49 -21 -106 -24 -125 -3 -19 -12 -68 -20 -107 -9
-40 -18 -87 -21 -105 -3 -18 -14 -76 -25 -128 -11 -52 -22 -110 -25 -128 -3
-18 -12 -64 -20 -102 -8 -38 -17 -83 -20 -100 -3 -16 -8 -45 -12 -62 -4 -18
-7 -69 -7 -114 0 -71 4 -89 32 -147 37 -75 90 -126 172 -165 l55 -27 1255 -2
1255 -2 52 -50 c74 -71 211 -135 334 -155 19 -3 55 -9 81 -14 26 -5 116 -9
200 -10 291 0 507 61 626 177 l52 52 1233 0 c845 0 1246 4 1277 11 142 34 252
158 267 302 5 46 -2 102 -32 254 -46 241 -90 463 -102 522 -8 41 -17 86 -19
100 -4 21 -12 60 -30 145 -1 6 -4 26 -7 45 -4 19 -13 67 -21 105 -8 39 -17 86
-20 105 -9 55 -16 94 -21 110 -2 8 -7 29 -10 45 -2 17 -7 41 -10 55 -8 41 -36
183 -41 210 -11 61 -26 138 -34 175 -5 22 -19 90 -31 150 -11 61 -22 117 -24
125 -1 8 -6 35 -10 60 -4 25 -10 61 -15 80 -8 31 -20 93 -34 170 -3 14 -12 63
-21 110 -9 47 -19 96 -21 110 -14 76 -36 129 -70 164 -61 63 -97 74 -252 75
-74 1 -138 4 -141 6 -4 2 -8 18 -9 37 -10 140 -93 233 -227 253 -44 7 -45 8
-39 39 15 75 10 187 -11 289 -7 33 -38 114 -64 165 -13 25 -16 44 -10 59 12
33 21 102 21 164 0 111 -54 233 -141 319 -54 54 -165 120 -201 120 -25 0 -33
14 -59 105 -113 402 -489 699 -905 714 l-65 2 -70 70 c-68 68 -152 118 -227
135 -90 20 -209 11 -289 -23 -42 -18 -126 -70 -136 -86 -4 -5 -35 6 -70 25
-167 88 -366 116 -543 77z"/>
<path d="M775 5253 c-58 -15 -92 -68 -82 -130 9 -55 37 -76 175 -133 70 -29
147 -61 172 -72 96 -43 165 -26 196 49 14 32 14 40 0 78 -20 50 -38 61 -237
143 -152 62 -191 73 -224 65z"/>
<path d="M6004 5189 c-90 -37 -177 -75 -193 -85 -90 -53 -64 -192 39 -209 33
-6 65 4 225 71 204 85 235 107 235 170 0 19 -7 48 -15 63 -16 31 -69 61 -104
58 -13 -1 -97 -32 -187 -68z"/>
</g>
</svg>
